<?xml version="1.0" encoding="UTF-8"?>
<svg width="88px" height="85px" viewBox="0 0 88 85" version="1.1" xmlns="http://www.w3.org/2000/svg"
>
	<title>编组 13@3x</title>
	<g id="页面-1" stroke="none" stroke-width="1" fill="none" fill-rule="evenodd">
		<g id="画板" transform="translate(-884.000000, -59.000000)">
			<g id="编组-13" transform="translate(884.000000, 59.000000)">
				<rect id="矩形备份-4" fill-opacity="0" fill="#D8D8D8"
					  transform="translate(44.000000, 42.500000) scale(-1, 1) rotate(-90.000000) translate(-44.000000, -42.500000) "
					  x="2" y="-1" width="84" height="87" rx="8"></rect>
				<polygon id="三角形" stroke="#FFC74D" stroke-width="2"
						 transform="translate(82.500000, 42.500000) rotate(-270.000000) translate(-82.500000, -42.500000) "
						 points="82.5 40 85 45 80 45"></polygon>
				<rect id="矩形备份-6" fill="#FFC74D"
					  transform="translate(40.000000, 42.500000) rotate(-90.000000) translate(-40.000000, -42.500000) "
					  x="39" y="3" width="2" height="79"></rect>
				<g id="编组-3备份-2"
				   transform="translate(18.000000, 42.416316) rotate(-90.000000) translate(-18.000000, -42.416316) translate(13.500000, 39.916316)"
				   stroke="#FFC74D" stroke-width="2">
					<polyline id="路径" points="0 2 4.5 0 9 2"></polyline>
					<polyline id="路径备份" points="0 5 4.5 3 9 5"></polyline>
				</g>
				<g id="编组-3备份-3"
				   transform="translate(57.000000, 43.000000) scale(1, -1) rotate(90.000000) translate(-57.000000, -43.000000) translate(52.500000, 40.500000)"
				   stroke="#FFC74D" stroke-width="2">
					<polyline id="路径" points="0 2 4.5 0 9 2"></polyline>
					<polyline id="路径备份" points="0 5 4.5 3 9 5"></polyline>
				</g>
				<g id="编组-12" transform="translate(64.000000, 35.000000)">
					<circle id="椭圆形备份-5" stroke="#FFC74D" stroke-width="2" cx="5" cy="2.5" r="2.5"></circle>
					<rect id="矩形" fill="#FFC74D" x="0" y="1.5" width="10" height="2" rx="1"></rect>
				</g>
				<g id="编组-12备份-2" transform="translate(64.000000, 40.000000)">
					<circle id="椭圆形备份-5" stroke="#FFC74D" stroke-width="2" cx="5" cy="2.5" r="2.5"></circle>
					<rect id="矩形" fill="#FFC74D" x="0" y="1.5" width="10" height="2" rx="1"></rect>
				</g>
				<g id="编组-12备份" transform="translate(64.000000, 45.000000)">
					<circle id="椭圆形备份-5" stroke="#FFC74D" stroke-width="2" cx="5" cy="2.5" r="2.5"></circle>
					<rect id="矩形" fill="#FFC74D" x="0" y="1.5" width="10" height="2" rx="1"></rect>
				</g>
				<rect id="矩形备份-12" stroke="#FFC74D" stroke-width="2" fill="#FF4949"
					  transform="translate(37.500000, 42.500000) rotate(-90.000000) translate(-37.500000, -42.500000) "
					  x="33.5" y="31.5" width="8" height="22"></rect>
			</g>
		</g>
	</g>
</svg>
