<?xml version="1.0" encoding="UTF-8"?>
<svg width="126px" height="206px" viewBox="0 0 126 206" version="1.1" xmlns="http://www.w3.org/2000/svg" xmlns:xlink="http://www.w3.org/1999/xlink">
    <title>编组 2</title>
    <g id="页面-1" stroke="none" stroke-width="1" fill="none" fill-rule="evenodd">
        <g id="画板" transform="translate(-678.000000, -73.000000)">
            <g id="编组-2" transform="translate(678.000000, 73.000000)">
                <rect id="矩形" fill-opacity="0" fill="#D8D8D8" transform="translate(63.000000, 103.000000) scale(-1, 1) translate(-63.000000, -103.000000) " x="0" y="0" width="126" height="206" rx="8"></rect>
                <circle id="椭圆形备份" stroke="#FFC74D" stroke-width="2" cx="62.5" cy="67.5" r="8.5"></circle>
                <g id="编组-4" transform="translate(36.000000, 54.000000)">
                    <circle id="椭圆形备份-2" stroke="#FFC74D" stroke-width="2" cx="8.5" cy="13.5" r="8.5"></circle>
                    <rect id="矩形" fill="#FFC74D" x="8" y="0" width="2" height="27" rx="1"></rect>
                </g>
                <g id="编组-4备份-3" transform="translate(72.000000, 54.000000)">
                    <circle id="椭圆形备份-2" stroke="#FFC74D" stroke-width="2" cx="8.5" cy="13.5" r="8.5"></circle>
                    <rect id="矩形" fill="#FFC74D" x="8" y="0" width="2" height="27" rx="1"></rect>
                </g>
                <rect id="矩形" fill="#FFC74D" x="62" y="0" width="2" height="122"></rect>
                <path d="M63,121 C56.372583,121 51,126.372583 51,133 C51,139.627417 56.372583,145 63,145 C69.627417,145 75,139.627417 75,133" id="路径" stroke="#FFC74D" stroke-width="2"></path>
                <rect id="矩形" fill="#FFC74D" x="63" y="132" width="13" height="2"></rect>
                <rect id="矩形备份-28" fill="#FFC74D" transform="translate(63.000000, 150.000000) rotate(-90.000000) translate(-63.000000, -150.000000) " x="45" y="149" width="36" height="2"></rect>
                <g id="编组-9" transform="translate(59.500000, 108.000000) rotate(-270.000000) translate(-59.500000, -108.000000) translate(53.500000, 90.500000)" fill="#FFC74D">
                    <rect id="矩形" x="5" y="0" width="2" height="28" rx="1"></rect>
                    <rect id="矩形" x="-3.97903932e-12" y="27" width="12" height="2" rx="1"></rect>
                    <rect id="矩形备份" x="2" y="30" width="8" height="2" rx="1"></rect>
                    <rect id="矩形备份-2" x="4" y="33" width="4" height="2" rx="1"></rect>
                </g>
                <rect id="矩形" stroke="#FFC74D" stroke-width="2" x="59" y="18" width="8" height="22"></rect>
                <rect id="矩形" stroke="#FFC74D" stroke-width="2" transform="translate(63.000000, 108.000000) rotate(-90.000000) translate(-63.000000, -108.000000) " x="60" y="101" width="6" height="14" rx="1"></rect>
                <rect id="矩形" fill="#FFC74D" transform="translate(77.000000, 108.000000) rotate(-345.000000) translate(-77.000000, -108.000000) " x="76" y="103" width="2" height="10" rx="1"></rect>
                <polygon id="三角形" stroke="#FFC74D" stroke-width="2" points="63 168 80 191 46 191"></polygon>
                <g id="编组-10" transform="translate(71.500000, 179.500000) rotate(-300.000000) translate(-71.500000, -179.500000) translate(69.000000, 176.000000)" fill="#FFC74D">
                    <rect id="矩形" x="0" y="0" width="2" height="7" rx="1"></rect>
                    <rect id="矩形备份-29" x="3" y="0" width="2" height="7" rx="1"></rect>
                </g>
                <g id="编组-10备份-2" transform="translate(63.500000, 190.500000) rotate(-360.000000) translate(-63.500000, -190.500000) translate(61.000000, 187.000000)" fill="#FFC74D">
                    <rect id="矩形" x="0" y="0" width="2" height="7" rx="1"></rect>
                    <rect id="矩形备份-29" x="3" y="0" width="2" height="7" rx="1"></rect>
                </g>
                <g id="编组-10备份" transform="translate(53.500000, 179.500000) scale(-1, 1) rotate(-300.000000) translate(-53.500000, -179.500000) translate(51.000000, 176.000000)" fill="#FFC74D">
                    <rect id="矩形" x="0" y="0" width="2" height="7" rx="1"></rect>
                    <rect id="矩形备份-29" x="3" y="0" width="2" height="7" rx="1"></rect>
                </g>
            </g>
        </g>
    </g>
</svg>