<?xml version="1.0" encoding="UTF-8"?>
<svg width="200px" height="250px" viewBox="0 0 200 250" version="1.1" xmlns="http://www.w3.org/2000/svg" xmlns:xlink="http://www.w3.org/1999/xlink">
    <title>A</title>
    <g id="页面-1" stroke="none" stroke-width="1" fill="none" fill-rule="evenodd">
        <g id="画板" transform="translate(-168.000000, -422.000000)">
            <g id="A" transform="translate(168.000000, 422.000000)">
                <rect id="矩形" fill="#000000" opacity="0" x="0" y="0" width="200" height="250"></rect>
                <rect id="矩形备份" fill="#F1A23A" x="99" y="0" width="2" height="250"></rect>
                <rect id="矩形" fill="#F1A23A" x="50" y="74" width="50" height="2"></rect>
                <rect id="矩形备份-2" fill="#F1A23A" x="146" y="21" width="2" height="26"></rect>
                <rect id="矩形" fill="#F1A23A" x="99" y="21" width="48" height="2"></rect>
                <rect id="矩形备份-3" fill="#F1A23A" transform="translate(147.000000, 105.500000) rotate(-90.000000) translate(-147.000000, -105.500000) " x="96.5" y="104.5" width="101" height="2"></rect>
                <circle id="椭圆形" stroke="#F1A23A" stroke-width="2" cx="146.5" cy="171.5" r="14.5"></circle>
                <circle id="椭圆形备份" stroke="#F1A23A" stroke-width="2" cx="146.5" cy="194.5" r="14.5"></circle>
                <rect id="矩形" stroke="#F1A23A" stroke-width="2" x="140" y="101" width="14" height="28"></rect>
                <polygon id="矩形" stroke="#F1A23A" stroke-width="2" points="85 100 115 100 100 125.660682"></polygon>
                <g id="编组-3" transform="translate(90.000000, 180.000000)">
                    <circle id="椭圆形" stroke="#F1A23A" stroke-width="2" cx="10" cy="10" r="10"></circle>
                    <rect id="矩形" fill="#F1A23A" x="19" y="9" width="11" height="2"></rect>
                    <rect id="矩形备份-4" fill="#F1A23A" transform="translate(24.000000, 10.000000) rotate(-62.000000) translate(-24.000000, -10.000000) " x="18" y="9" width="12" height="2"></rect>
                    <rect id="矩形备份-5" fill="#F1A23A" transform="translate(28.000000, 10.000000) rotate(-62.000000) translate(-28.000000, -10.000000) " x="22" y="9" width="12" height="2"></rect>
                </g>
                <g id="编组-9" transform="translate(33.000000, 76.000000)">
                    <g id="编组-8" transform="translate(9.000000, 54.000000)" fill="#F1A23A">
                        <rect id="矩形" x="0" y="0" width="18" height="2"></rect>
                        <rect id="矩形备份-9" x="3" y="4" width="12" height="2"></rect>
                        <rect id="矩形备份-10" x="5" y="8" width="8" height="2"></rect>
                    </g>
                    <rect id="矩形" fill="#F1A23A" x="17" y="0" width="2" height="8"></rect>
                    <rect id="矩形备份-8" fill="#F1A23A" x="17" y="44" width="2" height="10"></rect>
                    <rect id="矩形备份-7" fill="#F1A23A" x="17" y="15" width="2" height="6"></rect>
                    <circle id="椭圆形" stroke="#F1A23A" stroke-width="2" cx="18" cy="32" r="12"></circle>
                    <g id="编组-4" transform="translate(17.516071, 32.006657) rotate(-315.000000) translate(-17.516071, -32.006657) translate(6.016071, 20.006657)" fill="#F1A23A">
                        <rect id="矩形" x="1.42108547e-13" y="10.5" width="23" height="2.09090909"></rect>
                        <polygon id="矩形" transform="translate(11.500000, 11.545455) rotate(-90.000000) translate(-11.500000, -11.545455) " points="5.88133708e-13 10.5 23 10.5 23 12.5909091 5.88133708e-13 12.5909091"></polygon>
                    </g>
                    <rect id="矩形" fill="#F1A23A" x="9" y="8" width="18" height="2"></rect>
                    <rect id="矩形备份-6" fill="#F1A23A" x="9" y="13" width="18" height="2"></rect>
                </g>
                <g id="编组-12" transform="translate(139.000000, 44.000000)" fill="#F1A23A">
                    <g id="编组-11" transform="translate(8.000000, 8.000000) rotate(-315.000000) translate(-8.000000, -8.000000) translate(3.000000, 3.000000)">
                        <rect id="矩形" transform="translate(1.000000, 5.000000) rotate(-180.000000) translate(-1.000000, -5.000000) " x="0" y="8.52651283e-14" width="2" height="10"></rect>
                        <rect id="矩形" transform="translate(5.000000, 1.000000) rotate(-270.000000) translate(-5.000000, -1.000000) " x="4" y="-4" width="2" height="10"></rect>
                    </g>
                    <g id="编组-11备份" transform="translate(8.000000, 16.000000) rotate(-315.000000) translate(-8.000000, -16.000000) translate(3.000000, 11.000000)">
                        <rect id="矩形" transform="translate(1.000000, 5.000000) rotate(-180.000000) translate(-1.000000, -5.000000) " x="0" y="8.52651283e-14" width="2" height="10"></rect>
                        <rect id="矩形" transform="translate(5.000000, 1.000000) rotate(-270.000000) translate(-5.000000, -1.000000) " x="4" y="-4" width="2" height="10"></rect>
                    </g>
                </g>
            </g>
        </g>
    </g>
</svg>