<?xml version="1.0" encoding="utf-8"?>
<!-- Generator: Adobe Illustrator 25.4.1, SVG Export Plug-In . SVG Version: 6.00 Build 0)  -->
<svg version="1.1" id="图层_1" xmlns="http://www.w3.org/2000/svg" xmlns:xlink="http://www.w3.org/1999/xlink" x="0px" y="0px"
	 viewBox="0 0 220 372" style="enable-background:new 0 0 220 372;" xml:space="preserve">
<style type="text/css">
	.st0{opacity:0.6477;fill-rule:evenodd;clip-rule:evenodd;fill:#D8D8D8;fill-opacity:0;enable-background:new    ;}
	.st1{fill-rule:evenodd;clip-rule:evenodd;fill:#FFC74D;}
	.st2{fill:#FFC74D;}
	.st3{font-family:'STHeitiSC-Medium';}
	.st4{font-size:12px;}
</style>
<g id="页面-2">
	<g id="计量柜右">
		<rect id="矩形备份-78" x="-14.3" y="-1.5" class="st0" width="220" height="400"/>
		<path id="形状结合" class="st1" d="M100.8,146.1l9.2,9.2l9.2-9.2l0.7,0.7l-9.2,9.2h0.3v216h-2V237H64v13h6v2H56v-2h6v-15h47
			v-79h0.3l-9.2-9.2L100.8,146.1z M167,208v-14h-7v-33h7v-22h-56v9.3l8.2-8.2l0.7,0.7l-9.9,9.9l-0.7-0.7l0,0l-9.2-9.2l0.7-0.7
			l8.2,8.2V72.5l-8.2,8.2l-0.7-0.7l8.9-8.9l0,0l0,0l0.3-0.3l0,0l0.7-0.7l9.9,9.9l-0.7,0.7l-8.2-8.2V137h58v24h7v33h-7v14 M167,163
			h-5v29h5V163z M174,163h-5v29h5V163z M111,0v65h-0.1l9,9l-0.7,0.7l-9.2-9.2l-9.2,9.2l-0.7-0.7l9-9H109V0H111z"/>
	</g>
</g>
<g>
	<g>
		<path class="st2" d="M167.8,229c-6,0-10.9-4.9-10.9-10.9s4.9-10.9,10.9-10.9s10.9,4.9,10.9,10.9S173.8,229,167.8,229z
			 M167.8,208.3c-5.4,0-9.9,4.4-9.9,9.9s4.4,9.9,9.9,9.9s9.9-4.4,9.9-9.9S173.3,208.3,167.8,208.3z"/>
		<text transform="matrix(1.0831 0 0 1 164.1094 222.3527)" class="st2 st3 st4">v</text>
	</g>
	<g>
		<path class="st2" d="M167.8,247.8c-6,0-10.9-4.9-10.9-10.9s4.9-10.9,10.9-10.9s10.9,4.9,10.9,10.9S173.8,247.8,167.8,247.8z
			 M167.8,227.1c-5.4,0-9.9,4.4-9.9,9.9s4.4,9.9,9.9,9.9s9.9-4.4,9.9-9.9S173.3,227.1,167.8,227.1z"/>
		<text transform="matrix(1.0831 0 0 1 164.1094 241.1564)" class="st2 st3 st4">v</text>
	</g>
</g>
<g>
	<path class="st2" d="M79,107.6c-5.5,0-10-4.5-10-10s4.5-10,10-10s10,4.5,10,10S84.5,107.6,79,107.6z M79,88.7c-4.9,0-9,4-9,9
		s4,9,9,9s9-4,9-9S83.9,88.7,79,88.7z"/>
	<path class="st2" d="M79,131.6c-5.5,0-10-4.5-10-10s4.5-10,10-10s10,4.5,10,10S84.5,131.6,79,131.6z M79,112.7c-4.9,0-9,4-9,9
		s4,9,9,9s9-4,9-9S83.9,112.7,79,112.7z"/>
	<rect x="78.5" y="82.9" class="st2" width="1" height="53"/>
	<rect x="88.4" y="97.1" class="st2" width="7.3" height="1"/>
	<g>
		
			<rect x="83.7" y="96.8" transform="matrix(0.2588 -0.9659 0.9659 0.2588 -26.7102 159.8683)" class="st2" width="14.3" height="1"/>
		<rect x="86" y="97.5" transform="matrix(0.2588 -0.9659 0.9659 0.2588 -25.6362 162.5514)" class="st2" width="14.3" height="1"/>
	</g>
	<rect x="88.4" y="121.1" class="st2" width="7.3" height="1"/>
	<g>
		
			<rect x="83.7" y="120.8" transform="matrix(0.2588 -0.9659 0.9659 0.2588 -49.8917 177.6502)" class="st2" width="14.3" height="1"/>
		
			<rect x="85.9" y="121.5" transform="matrix(0.2588 -0.9659 0.9659 0.2588 -48.8177 180.3333)" class="st2" width="14.3" height="1"/>
	</g>
</g>
<g>
	<path class="st2" d="M140.6,107.6c-5.5,0-10-4.5-10-10s4.5-10,10-10s10,4.5,10,10S146.1,107.6,140.6,107.6z M140.6,88.7
		c-4.9,0-9,4-9,9s4,9,9,9s9-4,9-9S145.5,88.7,140.6,88.7z"/>
	<path class="st2" d="M140.6,131.6c-5.5,0-10-4.5-10-10s4.5-10,10-10s10,4.5,10,10S146.1,131.6,140.6,131.6z M140.6,112.7
		c-4.9,0-9,4-9,9s4,9,9,9s9-4,9-9S145.5,112.7,140.6,112.7z"/>
	<rect x="140.1" y="82.9" class="st2" width="1" height="53"/>
	<rect x="150" y="97.1" class="st2" width="7.3" height="1"/>
	<g>
		
			<rect x="145.3" y="96.8" transform="matrix(0.2588 -0.9659 0.9659 0.2588 19.0075 219.4034)" class="st2" width="14.3" height="1"/>
		
			<rect x="147.5" y="97.4" transform="matrix(0.2588 -0.9659 0.9659 0.2588 20.035 221.9742)" class="st2" width="14.3" height="1"/>
	</g>
	<rect x="150" y="121.1" class="st2" width="7.3" height="1"/>
	<g>
		
			<rect x="145.3" y="120.8" transform="matrix(0.2588 -0.9659 0.9659 0.2588 -4.1737 237.1852)" class="st2" width="14.3" height="1"/>
		
			<rect x="147.6" y="121.4" transform="matrix(0.2588 -0.9659 0.9659 0.2588 -3.108 239.8376)" class="st2" width="14.3" height="1"/>
	</g>
</g>
<rect x="109" y="370" class="st2" width="111" height="2"/>
<g>
	<path class="st2" d="M63,270.4c-4.1,0-7.5,3.4-7.5,7.5s3.4,7.5,7.5,7.5s7.5-3.4,7.5-7.5S67.2,270.4,63,270.4z M63,271.4
		c1.5,0,2.9,0.5,4,1.4l-4.2,4.2l-4-4C59.9,272,61.4,271.4,63,271.4z M56.5,277.9c0-1.6,0.6-3.1,1.6-4.2l4,4l-4.2,4.2
		C57,280.8,56.5,279.5,56.5,277.9z M63,284.4c-1.7,0-3.3-0.7-4.4-1.7l4.2-4.2l4.4,4.4C66.1,283.8,64.6,284.4,63,284.4z M67.9,282.2
		l-4.4-4.4l4.2-4.2c1.1,1.2,1.7,2.7,1.7,4.4C69.5,279.5,68.9,281,67.9,282.2z"/>
	<polygon class="st2" points="70,256 70,258 64,258 64,270.4 62,270.4 62,258 56,258 56,256 	"/>
	<g>
		<path class="st2" d="M71.3,299.3H54.5c-0.4,0-0.8-0.4-0.8-0.8l0,0c0-0.4,0.4-0.8,0.8-0.8h16.8c0.4,0,0.8,0.4,0.8,0.8l0,0
			C72.1,299,71.7,299.3,71.3,299.3z"/>
		<path class="st2" d="M68.3,302.1H57.5c-0.4,0-0.8-0.4-0.8-0.8l0,0c0-0.4,0.4-0.8,0.8-0.8h10.9c0.4,0,0.8,0.4,0.8,0.8l0,0
			C69.1,301.7,68.8,302.1,68.3,302.1z"/>
		<path class="st2" d="M65.5,304.9h-5.2c-0.4,0-0.8-0.4-0.8-0.8l0,0c0-0.4,0.4-0.8,0.8-0.8h5.2c0.4,0,0.8,0.4,0.8,0.8l0,0
			C66.3,304.5,65.9,304.9,65.5,304.9z"/>
	</g>
	<rect x="62" y="285.3" class="st2" width="2" height="12.6"/>
</g>
</svg>
