<?xml version="1.0" encoding="utf-8"?>
<!-- Generator: Adobe Illustrator 25.4.1, SVG Export Plug-In . SVG Version: 6.00 Build 0)  -->
<svg version="1.1" id="图层_1" xmlns="http://www.w3.org/2000/svg" xmlns:xlink="http://www.w3.org/1999/xlink" x="0px" y="0px"
	 viewBox="0 0 220 380.5" style="enable-background:new 0 0 220 380.5;" xml:space="preserve">
<style type="text/css">
	.st0{display:none;}
	.st1{display:inline;}
	.st2{opacity:0.5181;fill-rule:evenodd;clip-rule:evenodd;fill:#D8D8D8;fill-opacity:0;enable-background:new    ;}
	.st3{fill:#FFC74D;}
	.st4{fill-rule:evenodd;clip-rule:evenodd;fill:#FFC74D;}
	.st5{fill-rule:evenodd;clip-rule:evenodd;fill:#FF3334;}
	.st6{fill:none;stroke:#FFC74D;stroke-width:2;}
	.st7{font-family:'STHeitiSC-Medium';}
	.st8{font-size:12px;}
</style>
<g id="页面-2" class="st0">
	<g id="进线隔离左低右高" class="st1">
		<rect id="矩形备份-4" y="0" class="st2" width="220" height="400"/>
		<g id="编组-6" transform="translate(56.000000, 0.000000)">
			<path id="形状结合" class="st3" d="M44.8,146.1l9.2,9.2l9.2-9.2l0.7,0.7l-8.9,8.9V206h51v14.1l8.9,8.9l-0.7,0.7l-9.2-9.2
				l-9.2,9.2l-0.7-0.7l8.9-8.9V208H55v88h8l-8,14.2V345c5.1,0.5,9,4.8,9,10h1.4l3-8.6l0.9,0.3l-2.9,8.2h1.9l3-8.6l0.9,0.3l-2.9,8.2
				H70v1h-0.9l-1.6,4.7l-0.9-0.3l1.5-4.4h-1.9l-1.6,4.7l-0.9-0.3l1.5-4.4h-1.1c-0.5,4.7-4.2,8.5-8.9,8.9v15h-2v-15
				c-5.1-0.5-9-4.8-9-10s3.9-9.4,9-10v-34.8L45,296h8v-88H9v13h7v2H0v-2h7v-15h46v-50.3l-8.9-8.9L44.8,146.1z M45,355
				c0,4.6,3.5,8.4,8,8.9V346C48.5,346.6,45,350.4,45,355z M55,346.1V364c4.5-0.5,8-4.3,8-8.9S59.5,346.6,55,346.1z M105,292
				c6.1,0,11,4.9,11,11c0,4.1-2.2,7.6-5.5,9.5c3.3,1.9,5.5,5.4,5.5,9.5c0,6.1-4.9,11-11,11s-11-4.9-11-11c0-4.1,2.2-7.6,5.5-9.5
				c-3.3-1.9-5.5-5.4-5.5-9.5C94,296.9,98.9,292,105,292z M109.5,313.1l-0.1,0.1c-1.3,0.6-2.8,0.9-4.3,0.9c-1.6,0-3.1-0.3-4.5-0.9
				c-3.3,1.6-5.5,5-5.5,8.9c0,5.5,4.5,10,10,10s10-4.5,10-10C115,318.1,112.7,314.7,109.5,313.1z M106.7,321.2l0.7,0.7l-2.4,2.4v5.7
				h-1v-5.8l-2.3-2.3l0.7-0.7l2.1,2.1L106.7,321.2z M105,312c-1.1,0-2.1,0.2-3.1,0.5c1,0.3,2,0.5,3.1,0.5s2.1-0.2,3.1-0.5
				C107.1,312.2,106.1,312,105,312z M105,293c-5.5,0-10,4.5-10,10c0,3.9,2.3,7.3,5.5,8.9c1.4-0.6,2.9-0.9,4.5-0.9s3.1,0.3,4.5,0.9
				c3.3-1.6,5.5-5,5.5-8.9C115,297.5,110.5,293,105,293z M106.7,301.2l0.7,0.7l-2.4,2.4v5.7h-1v-5.8l-2.3-2.3l0.7-0.7l2.1,2.1
				L106.7,301.2z M61.3,297H55v11.2L61.3,297z M53,297h-6.3l6.3,11.2V297z M105,225.1l9.9,9.9l-0.7,0.7l-8.2-8.2V246h7v34h-7v12h-2
				v-12h-7v-34h7v-18.5l-8.2,8.2l-0.7-0.7l9.2-9.2l0,0L105,225.1z M104,248h-5v30h5V248z M111,248h-5v30h5V248z M10,275v2H7v-2H10z
				 M9,262v9h5v1h-2v2H4v-2H2v-1h5v-9H9z M8.1,247c4.1,0,7.5,3.4,7.5,7.5s-3.4,7.5-7.5,7.5s-7.5-3.4-7.5-7.5
				C0.6,250.4,3.9,247,8.1,247z M7.9,255l-4.2,4.2c1.2,1.1,2.7,1.7,4.4,1.7c1.6,0,3.1-0.6,4.2-1.6L7.9,255z M12.8,250.1l-4.2,4.2
				l4.4,4.4c1-1.1,1.6-2.6,1.6-4.2C14.6,252.8,13.9,251.2,12.8,250.1z M3.2,250.3c-1,1.1-1.6,2.6-1.6,4.2c0,1.5,0.5,2.9,1.4,4
				l4.2-4.2L3.2,250.3z M8.1,248c-1.6,0-3.1,0.6-4.2,1.6l4,4l4.2-4.2C11,248.5,9.6,248,8.1,248z M15,229v2H9v16H7v-16H1v-2H15z
				 M55,0v65.1l8.9,8.9l-0.7,0.7L54,65.5l-9.2,9.2L44.1,74l8.9-8.9V0H55z"/>
			<rect id="矩形备份-18" x="46" y="92" class="st4" width="16" height="33"/>
			<rect id="矩形备份-19" x="48" y="94" class="st5" width="12" height="29"/>
		</g>
	</g>
</g>
<rect x="109" y="0" class="st3" width="2" height="63.7"/>
<polygon class="st3" points="109,70.7 111,70.7 111,148 110,149 109,148 "/>
<rect x="109" y="155.5" class="st3" width="2" height="225"/>
<rect x="160" y="207.8" class="st3" width="2" height="85.7"/>
<rect x="63" y="207.6" class="st3" width="2" height="13.7"/>
<rect id="矩形备份-12_00000055695028360857753700000013522373367381050040_" x="153.9" y="246.9" class="st6" width="14.2" height="32.2"/>
<path class="st3" d="M110.1,364.9c-5.5,0-10-4.5-10-10s4.5-10,10-10s10,4.5,10,10S115.6,364.9,110.1,364.9z M110.1,346
	c-4.9,0-9,4-9,9s4,9,9,9s9-4,9-9S115.1,346,110.1,346z"/>
<rect x="109.6" y="340.2" class="st3" width="1" height="31.2"/>
<rect x="119.6" y="354.5" class="st3" width="7.3" height="1"/>
<g>
	
		<rect x="115.1" y="354.2" transform="matrix(0.2588 -0.9659 0.9659 0.2588 -251.982 380.9167)" class="st3" width="14.3" height="1"/>
	
		<rect x="117.1" y="354.7" transform="matrix(0.2588 -0.9659 0.9659 0.2588 -250.9958 383.3003)" class="st3" width="14.3" height="1"/>
</g>
<polygon class="st6" points="110,310.6 101.9,296.1 118,296.1 "/>
<g>
	<path class="st3" d="M161,314.2c-6,0-10.9-4.9-10.9-10.9s4.9-10.9,10.9-10.9s10.9,4.9,10.9,10.9C171.9,309.3,167,314.2,161,314.2z
		 M161,293.5c-5.4,0-9.9,4.4-9.9,9.9s4.4,9.9,9.9,9.9s9.9-4.4,9.9-9.9S166.5,293.5,161,293.5z"/>
	<text transform="matrix(1.0831 0 0 1 157.3091 307.5461)" class="st3 st7 st8">v</text>
</g>
<g>
	<path class="st3" d="M161,333c-6,0-10.9-4.9-10.9-10.9s4.9-10.9,10.9-10.9s10.9,4.9,10.9,10.9S167,333,161,333z M161,312.3
		c-5.4,0-9.9,4.4-9.9,9.9s4.4,9.9,9.9,9.9s9.9-4.4,9.9-9.9S166.5,312.3,161,312.3z"/>
	<text transform="matrix(1.0831 0 0 1 157.3091 326.3498)" class="st3 st7 st8">v</text>
</g>
<rect x="63" y="206" class="st3" width="99" height="2"/>
<polygon class="st3" points="65.4,221.1 71.5,221.1 71.5,223.1 57.5,223.1 57.5,221.1 63.5,221.1 "/>
<g>
	<polygon class="st3" points="110,69.4 119.9,79.3 119.2,80 110,70.8 100.8,80 100.1,79.3 	"/>
	<polygon class="st3" points="110,63.1 119.9,73 119.2,73.7 110,64.5 100.8,73.7 100.1,73 	"/>
</g>
<g>
	<polygon class="st3" points="100.1,139.8 100.8,139.1 110,148.3 119.2,139.1 119.9,139.8 110,149.7 	"/>
	<polygon class="st3" points="100.1,146.1 100.8,145.4 110,154.6 119.2,145.4 119.9,146.1 110,156 	"/>
</g>
<g>
	<path class="st3" d="M64.5,242.9c-4.1,0-7.5,3.4-7.5,7.5s3.4,7.5,7.5,7.5s7.5-3.4,7.5-7.5S68.7,242.9,64.5,242.9z M64.5,243.9
		c1.5,0,2.9,0.5,4,1.4l-4.2,4.2l-4-4C61.4,244.5,62.9,243.9,64.5,243.9z M58,250.4c0-1.6,0.6-3.1,1.6-4.2l4,4l-4.2,4.2
		C58.5,253.3,58,252,58,250.4z M64.5,256.9c-1.7,0-3.3-0.7-4.4-1.7l4.2-4.2l4.4,4.4C67.6,256.3,66.1,256.9,64.5,256.9z M69.4,254.7
		l-4.4-4.4l4.2-4.2c1.1,1.2,1.7,2.7,1.7,4.4C71,252,70.4,253.5,69.4,254.7z"/>
	<polygon class="st3" points="71.5,228.5 71.5,230.5 65.5,230.5 65.5,242.9 63.5,242.9 63.5,230.5 57.5,230.5 57.5,228.5 	"/>
	<g>
		<path class="st3" d="M72.8,271.8H56c-0.4,0-0.8-0.4-0.8-0.8l0,0c0-0.4,0.4-0.8,0.8-0.8h16.8c0.4,0,0.8,0.4,0.8,0.8l0,0
			C73.6,271.5,73.2,271.8,72.8,271.8z"/>
		<path class="st3" d="M69.8,274.6H59c-0.4,0-0.8-0.4-0.8-0.8l0,0c0-0.4,0.4-0.8,0.8-0.8h10.9c0.4,0,0.8,0.4,0.8,0.8l0,0
			C70.6,274.2,70.3,274.6,69.8,274.6z"/>
		<path class="st3" d="M67,277.4h-5.2c-0.4,0-0.8-0.4-0.8-0.8l0,0c0-0.4,0.4-0.8,0.8-0.8H67c0.4,0,0.8,0.4,0.8,0.8l0,0
			C67.8,277,67.4,277.4,67,277.4z"/>
	</g>
	<rect x="63.5" y="257.8" class="st3" width="2" height="12.6"/>
</g>
</svg>
