<?xml version="1.0" encoding="utf-8"?>
<!-- Generator: Adobe Illustrator 25.4.1, SVG Export Plug-In . SVG Version: 6.00 Build 0)  -->
<svg version="1.1" id="图层_1" xmlns="http://www.w3.org/2000/svg" xmlns:xlink="http://www.w3.org/1999/xlink" x="0px" y="0px"
	 viewBox="0 0 220 372" style="enable-background:new 0 0 220 372;" xml:space="preserve">
<style type="text/css">
	.st0{fill:#FFC74D;}
	.st1{fill-rule:evenodd;clip-rule:evenodd;fill:#FFFFFF;stroke:#FFC74D;stroke-width:2;}
	.st2{fill:none;stroke:#FFC74D;stroke-width:2;}
</style>
<rect x="109.1" y="70.6" class="st0" width="2" height="77.9"/>
<rect x="109" y="154.4" class="st0" width="2" height="156.9"/>
<rect x="109" y="309.1" class="st0" width="2" height="62.9"/>
<rect x="62" y="236.6" class="st0" width="2" height="14.1"/>
<rect x="62" y="235.4" class="st0" width="49" height="2"/>
<rect x="109" y="370" class="st0" width="111" height="2"/>
<rect x="109" y="0" class="st0" width="2" height="64.7"/>
<rect id="矩形备份-12" x="102.5" y="92.9" class="st1" width="15" height="31.2"/>
<polygon class="st2" points="110,311.3 101.9,296.8 118.1,296.8 "/>
<polygon class="st0" points="64,250 70,250 70,252 56,252 56,250 62,250 "/>
<g>
	<path class="st0" d="M79.3,192.2c-5.5,0-10-4.5-10-10s4.5-10,10-10s10,4.5,10,10S84.8,192.2,79.3,192.2z M79.3,173.3
		c-4.9,0-9,4-9,9s4,9,9,9s9-4,9-9S84.3,173.3,79.3,173.3z"/>
	<path class="st0" d="M79.3,216.2c-5.5,0-10-4.5-10-10s4.5-10,10-10s10,4.5,10,10S84.8,216.2,79.3,216.2z M79.3,197.3
		c-4.9,0-9,4-9,9s4,9,9,9s9-4,9-9S84.3,197.3,79.3,197.3z"/>
	<rect x="78.8" y="167.5" class="st0" width="1" height="53"/>
	<rect x="88.8" y="181.8" class="st0" width="7.3" height="1"/>
	<g>
		
			<rect x="84.3" y="181.5" transform="matrix(0.2588 -0.9659 0.9659 0.2588 -108.004 223.174)" class="st0" width="14.3" height="1"/>
		
			<rect x="86.3" y="182" transform="matrix(0.2588 -0.9659 0.9659 0.2588 -107.0178 225.5577)" class="st0" width="14.3" height="1"/>
	</g>
	<rect x="88.8" y="205.8" class="st0" width="7.3" height="1"/>
	<g>
		
			<rect x="84.3" y="205.5" transform="matrix(0.2588 -0.9659 0.9659 0.2588 -131.1848 240.9615)" class="st0" width="14.3" height="1"/>
		
			<rect x="86.3" y="206" transform="matrix(0.2588 -0.9659 0.9659 0.2588 -130.1986 243.3448)" class="st0" width="14.3" height="1"/>
	</g>
</g>
<g>
	<path class="st0" d="M109.7,192.2c-5.5,0-10-4.5-10-10s4.5-10,10-10s10,4.5,10,10S115.2,192.2,109.7,192.2z M109.7,173.3
		c-4.9,0-9,4-9,9s4,9,9,9c4.9,0,9-4,9-9S114.7,173.3,109.7,173.3z"/>
	<path class="st0" d="M109.7,216.2c-5.5,0-10-4.5-10-10s4.5-10,10-10s10,4.5,10,10S115.2,216.2,109.7,216.2z M109.7,197.3
		c-4.9,0-9,4-9,9s4,9,9,9c4.9,0,9-4,9-9S114.7,197.3,109.7,197.3z"/>
	<rect x="109.2" y="167.5" class="st0" width="1" height="53"/>
	<rect x="119.2" y="181.8" class="st0" width="7.3" height="1"/>
	<g>
		
			<rect x="114.7" y="181.5" transform="matrix(0.2588 -0.9659 0.9659 0.2588 -85.4737 252.5363)" class="st0" width="14.3" height="1"/>
		<rect x="116.7" y="182" transform="matrix(0.2588 -0.9659 0.9659 0.2588 -84.4873 254.92)" class="st0" width="14.3" height="1"/>
	</g>
	<rect x="119.2" y="205.8" class="st0" width="7.3" height="1"/>
	<g>
		
			<rect x="114.7" y="205.5" transform="matrix(0.2588 -0.9659 0.9659 0.2588 -108.6543 270.3237)" class="st0" width="14.3" height="1"/>
		
			<rect x="116.7" y="206" transform="matrix(0.2588 -0.9659 0.9659 0.2588 -107.6682 272.7072)" class="st0" width="14.3" height="1"/>
	</g>
</g>
<g>
	<path class="st0" d="M138,192.2c-5.5,0-10-4.5-10-10s4.5-10,10-10s10,4.5,10,10S143.5,192.2,138,192.2z M138,173.3c-4.9,0-9,4-9,9
		s4,9,9,9s9-4,9-9S143,173.3,138,173.3z"/>
	<path class="st0" d="M138,216.2c-5.5,0-10-4.5-10-10s4.5-10,10-10s10,4.5,10,10S143.5,216.2,138,216.2z M138,197.3c-4.9,0-9,4-9,9
		s4,9,9,9s9-4,9-9S143,197.3,138,197.3z"/>
	<rect x="137.5" y="167.5" class="st0" width="1" height="53"/>
	<rect x="147.5" y="181.8" class="st0" width="7.3" height="1"/>
	<g>
		
			<rect x="143" y="181.5" transform="matrix(0.2588 -0.9659 0.9659 0.2588 -64.4995 279.8705)" class="st0" width="14.3" height="1"/>
		<rect x="145" y="182" transform="matrix(0.2588 -0.9659 0.9659 0.2588 -63.5132 282.2538)" class="st0" width="14.3" height="1"/>
	</g>
	<rect x="147.5" y="205.8" class="st0" width="7.3" height="1"/>
	<g>
		
			<rect x="143" y="205.5" transform="matrix(0.2588 -0.9659 0.9659 0.2588 -87.6802 297.6576)" class="st0" width="14.3" height="1"/>
		<rect x="145" y="206" transform="matrix(0.2588 -0.9659 0.9659 0.2588 -86.694 300.0412)" class="st0" width="14.3" height="1"/>
	</g>
</g>
<g>
	<polygon class="st0" points="110,63.7 119.9,73.6 119.2,74.3 110,65.2 100.8,74.4 100.1,73.7 	"/>
	<polygon class="st0" points="110,69.6 119.9,79.5 119.2,80.2 110,71 100.8,80.3 100.1,79.5 	"/>
</g>
<g>
	<polygon class="st0" points="110.1,63.7 120,73.6 119.3,74.3 110.1,65.2 100.9,74.4 100.2,73.7 	"/>
	<polygon class="st0" points="110.1,69.6 120,79.5 119.3,80.2 110.1,71 100.9,80.3 100.2,79.5 	"/>
</g>
<g>
	<polygon class="st0" points="100.2,145.9 100.9,145.2 110.1,154.4 119.3,145.2 120,146 110.1,155.8 	"/>
	<polygon class="st0" points="100.2,140 100.9,139.3 110.1,148.5 119.3,139.3 120,140.1 110.1,150 	"/>
</g>
<g>
	<path class="st0" d="M63,270.6c-4.1,0-7.5,3.4-7.5,7.5s3.4,7.5,7.5,7.5s7.5-3.4,7.5-7.5S67.2,270.6,63,270.6z M63,271.6
		c1.5,0,2.9,0.5,4,1.4l-4.2,4.2l-4-4C59.9,272.2,61.4,271.6,63,271.6z M56.5,278.1c0-1.6,0.6-3.1,1.6-4.2l4,4l-4.2,4.2
		C57,281,56.5,279.7,56.5,278.1z M63,284.6c-1.7,0-3.3-0.7-4.4-1.7l4.2-4.2l4.4,4.4C66.1,284,64.6,284.6,63,284.6z M67.9,282.4
		l-4.4-4.4l4.2-4.2c1.1,1.2,1.7,2.7,1.7,4.4C69.5,279.7,68.9,281.2,67.9,282.4z"/>
	<polygon class="st0" points="70,256.2 70,258.2 64,258.2 64,270.6 62,270.6 62,258.2 56,258.2 56,256.2 	"/>
	<g>
		<path class="st0" d="M71.3,299.5H54.5c-0.4,0-0.8-0.4-0.8-0.8l0,0c0-0.4,0.4-0.8,0.8-0.8h16.8c0.4,0,0.8,0.4,0.8,0.8l0,0
			C72.1,299.2,71.7,299.5,71.3,299.5z"/>
		<path class="st0" d="M68.3,302.3H57.5c-0.4,0-0.8-0.4-0.8-0.8l0,0c0-0.4,0.4-0.8,0.8-0.8h10.9c0.4,0,0.8,0.4,0.8,0.8l0,0
			C69.1,301.9,68.8,302.3,68.3,302.3z"/>
		<path class="st0" d="M65.5,305.1h-5.2c-0.4,0-0.8-0.4-0.8-0.8l0,0c0-0.4,0.4-0.8,0.8-0.8h5.2c0.4,0,0.8,0.4,0.8,0.8l0,0
			C66.3,304.7,65.9,305.1,65.5,305.1z"/>
	</g>
	<rect x="62" y="285.5" class="st0" width="2" height="12.6"/>
</g>
</svg>
