<?xml version="1.0" encoding="utf-8"?>
<!-- Generator: Adobe Illustrator 25.4.1, SVG Export Plug-In . SVG Version: 6.00 Build 0)  -->
<svg version="1.1" id="图层_1" xmlns="http://www.w3.org/2000/svg" xmlns:xlink="http://www.w3.org/1999/xlink" x="0px" y="0px"
	 viewBox="0 0 220 372" style="enable-background:new 0 0 220 372;" xml:space="preserve">
<style type="text/css">
	.st0{opacity:0.5181;fill-rule:evenodd;clip-rule:evenodd;fill:#D8D8D8;fill-opacity:0;enable-background:new    ;}
	.st1{fill:#FFC74D;}
</style>
<g id="页面-2">
	<g id="联络隔离右">
		<rect id="矩形备份-152" y="0" class="st0" width="220" height="400"/>
		<path id="形状结合" class="st1" d="M0,372v-2h110V237H65v13h6v2H57v-2h6v-15h47v-79h0.3l-9.2-9.2l0.7-0.7l9.2,9.2l9.2-9.2
			l0.7,0.7l-9.2,9.2h0.3v216H0z M111,70.1l9.9,9.9l-0.7,0.7l-8.2-8.2v75.8l8.2-8.2l0.7,0.7l-9.9,9.9l-0.7-0.7l0,0l-9.2-9.2l0.7-0.7
			l8.2,8.2V72.5l-8.2,8.2l-0.7-0.7l8.9-8.9v0h0l0.3-0.3l0,0L111,70.1z M112,0v65h-0.1l9,9l-0.7,0.7l-9.2-9.2l-9.2,9.2l-0.7-0.7l9-9
			H110V0H112z M64,270.3c-4.1,0-7.5,3.4-7.5,7.5s3.4,7.5,7.5,7.5s7.5-3.4,7.5-7.5S68.2,270.3,64,270.3z M64,271.3
			c1.5,0,2.9,0.5,4,1.4l-4.2,4.2l-4-4C60.9,271.9,62.4,271.3,64,271.3z M57.5,277.8c0-1.6,0.6-3.1,1.6-4.2l4,4l-4.2,4.2
			C58,280.7,57.5,279.4,57.5,277.8z M64,284.3c-1.7,0-3.3-0.7-4.4-1.7l4.2-4.2l4.4,4.4C67.1,283.7,65.6,284.3,64,284.3z M68.9,282.1
			l-4.4-4.4l4.2-4.2c1.1,1.2,1.7,2.7,1.7,4.4C70.5,279.4,69.9,280.9,68.9,282.1z M71,256v2h-6v12.4h-2V258h-6v-2H71z M72.3,299.3
			H55.5c-0.4,0-0.8-0.4-0.8-0.8l0,0c0-0.4,0.4-0.8,0.8-0.8h16.8c0.4,0,0.8,0.4,0.8,0.8l0,0C73.1,299,72.7,299.3,72.3,299.3z
			 M69.3,302.1H58.5c-0.4,0-0.8-0.4-0.8-0.8l0,0c0-0.4,0.4-0.8,0.8-0.8h10.9c0.4,0,0.8,0.4,0.8,0.8l0,0
			C70.1,301.7,69.8,302.1,69.3,302.1z M66.5,304.9h-5.2c-0.4,0-0.8-0.4-0.8-0.8l0,0c0-0.4,0.4-0.8,0.8-0.8h5.2
			c0.4,0,0.8,0.4,0.8,0.8l0,0C67.3,304.5,66.9,304.9,66.5,304.9z M63,285.3h2v12.6h-2V285.3z"/>
	</g>
</g>
</svg>
