<?xml version="1.0" encoding="utf-8"?>
<!-- Generator: Adobe Illustrator 25.4.1, SVG Export Plug-In . SVG Version: 6.00 Build 0)  -->
<svg version="1.1" id="图层_1" xmlns="http://www.w3.org/2000/svg" xmlns:xlink="http://www.w3.org/1999/xlink" x="0px" y="0px"
	 viewBox="0 0 220 372" style="enable-background:new 0 0 220 372;" xml:space="preserve">
<style type="text/css">
	.st0{fill:#FFC74D;}
	.st1{fill-rule:evenodd;clip-rule:evenodd;fill:#FFFFFF;stroke:#FFC74D;stroke-width:2;}
</style>
<rect x="109.1" y="70.6" class="st0" width="2" height="77.9"/>
<rect x="109" y="154.4" class="st0" width="2" height="154.7"/>
<rect x="109" y="309.1" class="st0" width="2" height="62.9"/>
<rect x="156.8" y="235.4" class="st0" width="2" height="14.1"/>
<rect x="109" y="235.4" class="st0" width="49" height="2"/>
<rect x="109" y="370" class="st0" width="111" height="2"/>
<rect x="109" y="0" class="st0" width="2" height="64.7"/>
<rect id="矩形备份-12" x="102.5" y="92.9" class="st1" width="15" height="31.2"/>
<polygon class="st0" points="158.8,248.8 164.8,248.8 164.8,250.8 150.8,250.8 150.8,248.8 156.8,248.8 "/>
<g>
	<path class="st0" d="M79.3,192.2c-5.5,0-10-4.5-10-10s4.5-10,10-10s10,4.5,10,10S84.8,192.2,79.3,192.2z M79.3,173.3
		c-4.9,0-9,4-9,9s4,9,9,9s9-4,9-9S84.3,173.3,79.3,173.3z"/>
	<path class="st0" d="M79.3,216.2c-5.5,0-10-4.5-10-10s4.5-10,10-10s10,4.5,10,10S84.8,216.2,79.3,216.2z M79.3,197.3
		c-4.9,0-9,4-9,9s4,9,9,9s9-4,9-9S84.3,197.3,79.3,197.3z"/>
	<rect x="78.8" y="167.5" class="st0" width="1" height="53"/>
	<rect x="88.8" y="181.8" class="st0" width="7.3" height="1"/>
	<g>
		
			<rect x="84.3" y="181.4" transform="matrix(0.2588 -0.9659 0.9659 0.2588 -107.9577 223.1965)" class="st0" width="14.3" height="1"/>
		
			<rect x="86.3" y="182" transform="matrix(0.2588 -0.9659 0.9659 0.2588 -107.0467 225.5464)" class="st0" width="14.3" height="1"/>
	</g>
	<rect x="88.8" y="205.8" class="st0" width="7.3" height="1"/>
	<g>
		
			<rect x="84.3" y="205.4" transform="matrix(0.2588 -0.9659 0.9659 0.2588 -131.1382 240.985)" class="st0" width="14.3" height="1"/>
		
			<rect x="86.3" y="206" transform="matrix(0.2588 -0.9659 0.9659 0.2588 -130.2267 243.3346)" class="st0" width="14.3" height="1"/>
	</g>
</g>
<g>
	<path class="st0" d="M109.7,192.2c-5.5,0-10-4.5-10-10s4.5-10,10-10s10,4.5,10,10S115.2,192.2,109.7,192.2z M109.7,173.3
		c-4.9,0-9,4-9,9s4,9,9,9c4.9,0,9-4,9-9S114.7,173.3,109.7,173.3z"/>
	<path class="st0" d="M109.7,216.2c-5.5,0-10-4.5-10-10s4.5-10,10-10s10,4.5,10,10S115.2,216.2,109.7,216.2z M109.7,197.3
		c-4.9,0-9,4-9,9s4,9,9,9c4.9,0,9-4,9-9S114.7,197.3,109.7,197.3z"/>
	<rect x="109.2" y="167.5" class="st0" width="1" height="53"/>
	<rect x="119.2" y="181.8" class="st0" width="7.3" height="1"/>
	<g>
		
			<rect x="114.7" y="181.4" transform="matrix(0.2588 -0.9659 0.9659 0.2588 -85.4261 252.5579)" class="st0" width="14.3" height="1"/>
		
			<rect x="116.7" y="182" transform="matrix(0.2588 -0.9659 0.9659 0.2588 -84.5149 254.908)" class="st0" width="14.3" height="1"/>
	</g>
	<rect x="119.2" y="205.8" class="st0" width="7.3" height="1"/>
	<g>
		
			<rect x="114.7" y="205.4" transform="matrix(0.2588 -0.9659 0.9659 0.2588 -108.6063 270.3464)" class="st0" width="14.3" height="1"/>
		
			<rect x="116.7" y="206" transform="matrix(0.2588 -0.9659 0.9659 0.2588 -107.6951 272.6961)" class="st0" width="14.3" height="1"/>
	</g>
</g>
<g>
	<path class="st0" d="M138,192.2c-5.5,0-10-4.5-10-10s4.5-10,10-10s10,4.5,10,10S143.5,192.2,138,192.2z M138,173.3c-4.9,0-9,4-9,9
		s4,9,9,9s9-4,9-9S143,173.3,138,173.3z"/>
	<path class="st0" d="M138,216.2c-5.5,0-10-4.5-10-10s4.5-10,10-10s10,4.5,10,10S143.5,216.2,138,216.2z M138,197.3c-4.9,0-9,4-9,9
		s4,9,9,9s9-4,9-9S143,197.3,138,197.3z"/>
	<rect x="137.5" y="167.5" class="st0" width="1" height="53"/>
	<rect x="147.5" y="181.8" class="st0" width="7.3" height="1"/>
	<g>
		
			<rect x="143" y="181.4" transform="matrix(0.2588 -0.9659 0.9659 0.2588 -64.4509 279.8914)" class="st0" width="14.3" height="1"/>
		<rect x="145" y="182" transform="matrix(0.2588 -0.9659 0.9659 0.2588 -63.5394 282.2411)" class="st0" width="14.3" height="1"/>
	</g>
	<rect x="147.5" y="205.8" class="st0" width="7.3" height="1"/>
	<g>
		
			<rect x="143" y="205.4" transform="matrix(0.2588 -0.9659 0.9659 0.2588 -87.6309 297.6796)" class="st0" width="14.3" height="1"/>
		<rect x="145" y="206" transform="matrix(0.2588 -0.9659 0.9659 0.2588 -86.7197 300.0294)" class="st0" width="14.3" height="1"/>
	</g>
</g>
<g>
	<polygon class="st0" points="110,63.7 119.9,73.6 119.2,74.3 110,65.2 100.8,74.4 100.1,73.7 	"/>
	<polygon class="st0" points="110,69.6 119.9,79.5 119.2,80.2 110,71 100.8,80.3 100.1,79.5 	"/>
</g>
<g>
	<polygon class="st0" points="110.1,63.7 120,73.6 119.3,74.3 110.1,65.2 100.9,74.4 100.2,73.7 	"/>
	<polygon class="st0" points="110.1,69.6 120,79.5 119.3,80.2 110.1,71 100.9,80.3 100.2,79.5 	"/>
</g>
<g>
	<polygon class="st0" points="100.2,145.9 100.9,145.2 110.1,154.4 119.3,145.2 120,146 110.1,155.8 	"/>
	<polygon class="st0" points="100.2,140 100.9,139.3 110.1,148.5 119.3,139.3 120,140.1 110.1,150 	"/>
</g>
<g>
	<path class="st0" d="M157.8,269.4c-4.1,0-7.5,3.4-7.5,7.5s3.4,7.5,7.5,7.5c4.1,0,7.5-3.4,7.5-7.5S162,269.4,157.8,269.4z
		 M157.8,270.4c1.5,0,2.9,0.5,4,1.4l-4.2,4.2l-4-4C154.7,271,156.2,270.4,157.8,270.4z M151.3,276.9c0-1.6,0.6-3.1,1.6-4.2l4,4
		l-4.2,4.2C151.8,279.8,151.3,278.5,151.3,276.9z M157.8,283.4c-1.7,0-3.3-0.7-4.4-1.7l4.2-4.2l4.4,4.4
		C160.9,282.8,159.4,283.4,157.8,283.4z M162.7,281.2l-4.4-4.4l4.2-4.2c1.1,1.2,1.7,2.7,1.7,4.4C164.3,278.5,163.7,280,162.7,281.2z
		"/>
	<polygon class="st0" points="164.8,255 164.8,257 158.8,257 158.8,269.4 156.8,269.4 156.8,257 150.8,257 150.8,255 	"/>
	<g>
		<path class="st0" d="M166.1,298.3h-16.8c-0.4,0-0.8-0.4-0.8-0.8l0,0c0-0.4,0.4-0.8,0.8-0.8h16.8c0.4,0,0.8,0.4,0.8,0.8l0,0
			C166.9,298,166.5,298.3,166.1,298.3z"/>
		<path class="st0" d="M163.1,301.1h-10.8c-0.4,0-0.8-0.4-0.8-0.8l0,0c0-0.4,0.4-0.8,0.8-0.8h10.9c0.4,0,0.8,0.4,0.8,0.8l0,0
			C163.9,300.7,163.6,301.1,163.1,301.1z"/>
		<path class="st0" d="M160.3,303.9h-5.2c-0.4,0-0.8-0.4-0.8-0.8l0,0c0-0.4,0.4-0.8,0.8-0.8h5.2c0.4,0,0.8,0.4,0.8,0.8l0,0
			C161.1,303.5,160.7,303.9,160.3,303.9z"/>
	</g>
	<rect x="156.8" y="284.3" class="st0" width="2" height="12.6"/>
</g>
</svg>
