<?xml version="1.0" encoding="UTF-8" standalone="no"?>
<!-- Generator: Adobe Illustrator 25.4.1, SVG Export Plug-In . SVG Version: 6.00 Build 0)  -->

<svg
   version="1.1"
   id="图层_1"
   x="0px"
   y="0px"
   viewBox="0 0 99.474121 157.38701"
   xml:space="preserve"
   sodipodi:docname="gycx.svg"
   inkscape:version="1.4.2 (f4327f4, 2025-05-13)"
   width="99.474121"
   height="157.38701"
   xmlns:inkscape="http://www.inkscape.org/namespaces/inkscape"
   xmlns:sodipodi="http://sodipodi.sourceforge.net/DTD/sodipodi-0.dtd"
   xmlns="http://www.w3.org/2000/svg"
   xmlns:svg="http://www.w3.org/2000/svg"><defs
   id="defs45" /><sodipodi:namedview
   id="namedview45"
   pagecolor="#ffffff"
   bordercolor="#000000"
   borderopacity="0.25"
   inkscape:showpageshadow="2"
   inkscape:pageopacity="0.0"
   inkscape:pagecheckerboard="0"
   inkscape:deskcolor="#d1d1d1"
   showguides="true"
   inkscape:zoom="2"
   inkscape:cx="109.25"
   inkscape:cy="259.25"
   inkscape:window-width="2560"
   inkscape:window-height="1494"
   inkscape:window-x="3829"
   inkscape:window-y="-11"
   inkscape:window-maximized="1"
   inkscape:current-layer="图层_1"><sodipodi:guide
     position="-142.07067,68.693509"
     orientation="1,0"
     id="guide45"
     inkscape:locked="false" /></sodipodi:namedview>
<style
   type="text/css"
   id="style1">
	.st0{fill:#FFC74D;}
	.st1{opacity:0.5181;fill-rule:evenodd;clip-rule:evenodd;fill:#D8D8D8;fill-opacity:0;enable-background:new    ;}
	.st2{display:none;fill:#FFC74D;}
	.st3{fill-rule:evenodd;clip-rule:evenodd;fill:#FFC74D;}
	.st4{fill-rule:evenodd;clip-rule:evenodd;fill:#FFFFFF;}
	.st5{fill:none;stroke:#FFC74D;stroke-width:1.8;stroke-miterlimit:10;}
	.st6{fill:none;stroke:#FFC74D;stroke-width:1.6;}
</style>
<g
   id="g2"
   transform="scale(0.45215508,0.39346754)">
	<rect
   x="109"
   y="71.5"
   class="st0"
   width="2"
   height="82.5"
   id="rect1" />
	<polygon
   class="st0"
   points="110,72 100.8,81.2 100.1,80.5 110,70.6 119.9,80.5 119.2,81.2 "
   id="polygon1" />
	<polygon
   class="st0"
   points="119.2,144.8 119.9,145.5 110,155.4 100.1,145.5 100.8,144.8 110,154 "
   id="polygon2" />
</g>
<g
   id="页面-2"
   transform="scale(0.45215508,0.39346754)">
	<g
   id="高压出线柜"
   transform="matrix(-1,0,0,1,220,0)">
		<polygon
   id="矩形备份-183"
   class="st1"
   points="0,400 220,400 " />
		<g
   id="编组-18"
   transform="translate(54)">
		</g>
	</g>
</g>
<g
   id="g27"
   transform="scale(0.45215508,0.39346754)">
	<g
   id="g10">
		<path
   class="st0"
   d="m 79.5,196.6 c -5.5,0 -10,-4.5 -10,-10 0,-5.5 4.5,-10 10,-10 5.5,0 10,4.5 10,10 0,5.5 -4.5,10 -10,10 z m 0,-18.9 c -4.9,0 -9,4 -9,9 0,5 4,9 9,9 5,0 9,-4 9,-9 0,-5 -4.1,-9 -9,-9 z"
   id="path2" />
		<path
   class="st0"
   d="m 79.5,220.6 c -5.5,0 -10,-4.5 -10,-10 0,-5.5 4.5,-10 10,-10 5.5,0 10,4.5 10,10 0,5.5 -4.5,10 -10,10 z m 0,-18.9 c -4.9,0 -9,4 -9,9 0,5 4,9 9,9 5,0 9,-4 9,-9 0,-5 -4.1,-9 -9,-9 z"
   id="path3" />
		<rect
   x="79"
   y="171.89999"
   class="st0"
   width="1"
   height="53"
   id="rect3" />
		<rect
   x="88.900002"
   y="186.10001"
   class="st0"
   width="7.3000002"
   height="1"
   id="rect4" />
		<g
   id="g6">
			
				<rect
   x="84.300003"
   y="185.89999"
   transform="matrix(0.2588,-0.9659,0.9659,0.2588,-112.2696,226.5338)"
   class="st0"
   width="14.3"
   height="1"
   id="rect5" />
			
				<rect
   x="86.5"
   y="186.5"
   transform="matrix(0.2588,-0.9659,0.9659,0.2588,-111.2421,229.1046)"
   class="st0"
   width="14.3"
   height="1"
   id="rect6" />
		</g>
		<rect
   x="88.900002"
   y="210.10001"
   class="st0"
   width="7.3000002"
   height="1"
   id="rect7" />
		<g
   id="g9">
			
				<rect
   x="84.300003"
   y="209.89999"
   transform="matrix(0.2588,-0.9659,0.9659,0.2588,-135.4508,244.3158)"
   class="st0"
   width="14.3"
   height="1"
   id="rect8" />
			
				<rect
   x="86.5"
   y="210.5"
   transform="matrix(0.2588,-0.9659,0.9659,0.2588,-134.4237,246.8864)"
   class="st0"
   width="14.3"
   height="1"
   id="rect9" />
		</g>
	</g>
	<g
   id="g18">
		<path
   class="st0"
   d="m 109.9,196.6 c -5.5,0 -10,-4.5 -10,-10 0,-5.5 4.5,-10 10,-10 5.5,0 10,4.5 10,10 0,5.5 -4.5,10 -10,10 z m 0,-18.9 c -4.9,0 -9,4 -9,9 0,5 4,9 9,9 4.9,0 9,-4 9,-9 0,-5 -4.1,-9 -9,-9 z"
   id="path10" />
		<path
   class="st0"
   d="m 109.9,220.6 c -5.5,0 -10,-4.5 -10,-10 0,-5.5 4.5,-10 10,-10 5.5,0 10,4.5 10,10 0,5.5 -4.5,10 -10,10 z m 0,-18.9 c -4.9,0 -9,4 -9,9 0,5 4,9 9,9 4.9,0 9,-4 9,-9 0,-5 -4.1,-9 -9,-9 z"
   id="path11" />
		<rect
   x="109.4"
   y="171.89999"
   class="st2"
   width="1"
   height="53"
   id="rect11" />
		<rect
   x="119.3"
   y="186.10001"
   class="st0"
   width="7.3000002"
   height="1"
   id="rect12" />
		<g
   id="g14">
			
				<rect
   x="114.7"
   y="185.89999"
   transform="matrix(0.2588,-0.9659,0.9659,0.2588,-89.7301,255.8971)"
   class="st0"
   width="14.3"
   height="1"
   id="rect13" />
			
				<rect
   x="116.9"
   y="186.5"
   transform="matrix(0.2588,-0.9659,0.9659,0.2588,-88.7029,258.4679)"
   class="st0"
   width="14.3"
   height="1"
   id="rect14" />
		</g>
		<rect
   x="119.3"
   y="210.10001"
   class="st0"
   width="7.3000002"
   height="1"
   id="rect15" />
		<g
   id="g17">
			
				<rect
   x="114.7"
   y="209.89999"
   transform="matrix(0.2588,-0.9659,0.9659,0.2588,-112.9114,273.679)"
   class="st0"
   width="14.3"
   height="1"
   id="rect16" />
			
				<rect
   x="116.9"
   y="210.5"
   transform="matrix(0.2588,-0.9659,0.9659,0.2588,-111.8844,276.2499)"
   class="st0"
   width="14.3"
   height="1"
   id="rect17" />
		</g>
	</g>
	<g
   id="g26">
		<path
   class="st0"
   d="m 138.2,196.6 c -5.5,0 -10,-4.5 -10,-10 0,-5.5 4.5,-10 10,-10 5.5,0 10,4.5 10,10 0,5.5 -4.5,10 -10,10 z m 0,-18.9 c -4.9,0 -9,4 -9,9 0,5 4,9 9,9 5,0 9,-4 9,-9 0,-5 -4.1,-9 -9,-9 z"
   id="path18" />
		<path
   class="st0"
   d="m 138.2,220.6 c -5.5,0 -10,-4.5 -10,-10 0,-5.5 4.5,-10 10,-10 5.5,0 10,4.5 10,10 0,5.5 -4.5,10 -10,10 z m 0,-18.9 c -4.9,0 -9,4 -9,9 0,5 4,9 9,9 5,0 9,-4 9,-9 0,-5 -4.1,-9 -9,-9 z"
   id="path19" />
		<rect
   x="137.7"
   y="171.89999"
   class="st0"
   width="1"
   height="53"
   id="rect19" />
		<rect
   x="147.60001"
   y="186.10001"
   class="st0"
   width="7.3000002"
   height="1"
   id="rect20" />
		<g
   id="g22">
			
				<rect
   x="143"
   y="185.89999"
   transform="matrix(0.2588,-0.9659,0.9659,0.2588,-68.7567,283.2318)"
   class="st0"
   width="14.3"
   height="1"
   id="rect21" />
			
				<rect
   x="145.2"
   y="186.5"
   transform="matrix(0.2588,-0.9659,0.9659,0.2588,-67.7293,285.8024)"
   class="st0"
   width="14.3"
   height="1"
   id="rect22" />
		</g>
		<rect
   x="147.60001"
   y="210.10001"
   class="st0"
   width="7.3000002"
   height="1"
   id="rect23" />
		<g
   id="g25">
			
				<rect
   x="143"
   y="209.89999"
   transform="matrix(0.2588,-0.9659,0.9659,0.2588,-91.9384,301.0137)"
   class="st0"
   width="14.3"
   height="1"
   id="rect24" />
			
				<rect
   x="145.2"
   y="210.5"
   transform="matrix(0.2588,-0.9659,0.9659,0.2588,-90.9108,303.5846)"
   class="st0"
   width="14.3"
   height="1"
   id="rect25" />
		</g>
	</g>
</g>
<g
   id="g31"
   transform="scale(0.45215508,0.39346754)">
	<path
   class="st0"
   d="m 109.6,363.2 c -5.5,0 -10,-4.5 -10,-10 0,-5.5 4.5,-10 10,-10 5.5,0 10,4.5 10,10 0,5.5 -4.5,10 -10,10 z m 0,-18.9 c -4.9,0 -9,4 -9,9 0,5 4,9 9,9 5,0 9,-4 9,-9 0,-5 -4,-9 -9,-9 z"
   id="path27" />
	<g
   id="g30">
		<rect
   x="119.1"
   y="352.79999"
   class="st0"
   width="7.3000002"
   height="1"
   id="rect27" />
		<g
   id="g29">
			
				<rect
   x="114.5"
   y="352.60001"
   transform="matrix(0.2588,-0.9659,0.9659,0.2588,-250.8621,379.2604)"
   class="st0"
   width="14.3"
   height="1"
   id="rect28" />
			
				<rect
   x="116.7"
   y="353"
   transform="matrix(0.2588,-0.9659,0.9659,0.2588,-249.6078,381.6497)"
   class="st0"
   width="14.3"
   height="1"
   id="rect29" />
		</g>
	</g>
</g>
<g
   id="g32"
   transform="scale(0.45215508,0.39346754)">
	<rect
   id="矩形"
   x="102"
   y="95"
   class="st3"
   width="16"
   height="33" />
	<rect
   id="矩形_00000026861099542554342950000008796049366496181903_"
   x="104"
   y="97"
   class="st4"
   width="12"
   height="29" />
</g>
<g
   id="g38"
   transform="scale(0.45215508,0.39346754)">
	<polygon
   class="st0"
   points="110.9,65.1 110.9,0 108.9,0 108.9,65.1 100,74 100.7,74.7 109.9,65.5 119.1,74.7 119.8,74 "
   id="polygon32" />
	<polygon
   class="st0"
   points="119.8,151.8 119.1,151.1 109.9,160.3 100.7,151.1 100,151.8 108.9,160.7 108.9,226.1 110.9,226.1 110.9,160.7 "
   id="polygon33" />
	<polyline
   class="st2"
   points="15.9,317 15.9,275.9 22.9,262.7 21.9,262.1 14.9,275.5 14.9,275.5 14.9,317  "
   id="polyline33" />
	<path
   class="st0"
   d="m 110.9,367.1 v -49.8 l 8,-14.2 h -8 v -61 h 46 v 14 h -6 v 2 h 14 v -2 h -6 v -16 h -48 v -20 h -2 v 20 h -95 v 20 h 2 v -18 h 55 1 37 v 61 h -8 l 8,14.2 v 49.8 m 0,-4.1 v 17 h 2 v -17 m -2,-47.8 -6.3,-11.2 h 6.3 z m 8.3,-11.2 -6.3,11.2 V 304 Z"
   id="path33" />
	<rect
   x="63.799999"
   y="263.20001"
   class="st5"
   width="15"
   height="28"
   id="rect33" />
	<path
   class="st0"
   d="M 110.9,218.9"
   id="path34" />
	<g
   id="g37">
		<path
   class="st0"
   d="M 79.7,315.7 H 62.9 c -0.4,0 -0.8,-0.4 -0.8,-0.8 v 0 c 0,-0.4 0.4,-0.8 0.8,-0.8 h 16.8 c 0.4,0 0.8,0.4 0.8,0.8 v 0 c 0,0.5 -0.4,0.8 -0.8,0.8 z"
   id="path35" />
		<path
   class="st0"
   d="M 76.7,318.5 H 65.9 c -0.4,0 -0.8,-0.4 -0.8,-0.8 v 0 c 0,-0.4 0.4,-0.8 0.8,-0.8 h 10.9 c 0.4,0 0.8,0.4 0.8,0.8 v 0 c -0.1,0.4 -0.4,0.8 -0.9,0.8 z"
   id="path36" />
		<path
   class="st0"
   d="m 73.9,321.3 h -5.2 c -0.4,0 -0.8,-0.4 -0.8,-0.8 v 0 c 0,-0.4 0.4,-0.8 0.8,-0.8 h 5.2 c 0.4,0 0.8,0.4 0.8,0.8 v 0 c 0,0.4 -0.4,0.8 -0.8,0.8 z"
   id="path37" />
	</g>
	<rect
   x="70.199997"
   y="242.10001"
   class="st0"
   width="2"
   height="31.799999"
   id="rect37" />
	<rect
   x="70.199997"
   y="291.10001"
   class="st0"
   width="2"
   height="23.4"
   id="rect38" />
	<polygon
   class="st0"
   points="21.9,261.8 23.4,262.9 16.4,275.5 16.4,317 14.4,317 14.4,275.5 "
   id="polygon38" />
</g>
<polygon
   class="st6"
   points="71.2,281.3 67.8,273.5 74.6,273.5 "
   id="polygon39"
   transform="scale(0.45215508,0.39346754)" />
<g
   id="g43"
   transform="scale(0.45215508,0.39346754)">
	<path
   class="st0"
   d="m 157.9,278.3 c -4.1,0 -7.5,3.4 -7.5,7.5 0,4.1 3.4,7.5 7.5,7.5 4.1,0 7.5,-3.4 7.5,-7.5 0,-4.1 -3.3,-7.5 -7.5,-7.5 z m 0,1 c 1.5,0 2.9,0.5 4,1.4 l -4.2,4.2 -4,-4 c 1.1,-1 2.6,-1.6 4.2,-1.6 z m -6.5,6.5 c 0,-1.6 0.6,-3.1 1.6,-4.2 l 4,4 -4.2,4.2 c -0.9,-1.1 -1.4,-2.4 -1.4,-4 z m 6.5,6.5 c -1.7,0 -3.3,-0.7 -4.4,-1.7 l 4.2,-4.2 4.4,4.4 c -1.1,0.9 -2.6,1.5 -4.2,1.5 z m 4.9,-2.2 -4.4,-4.4 4.2,-4.2 c 1.1,1.2 1.7,2.7 1.7,4.4 0.1,1.5 -0.5,3 -1.5,4.2 z"
   id="path39" />
	<polygon
   class="st0"
   points="158.9,278.4 156.9,278.4 156.9,266 150.9,266 150.9,264 164.9,264 164.9,266 158.9,266 "
   id="polygon40" />
	<g
   id="g42">
		<path
   class="st0"
   d="m 166.2,307.3 h -16.8 c -0.4,0 -0.8,-0.4 -0.8,-0.8 v 0 c 0,-0.4 0.4,-0.8 0.8,-0.8 h 16.8 c 0.4,0 0.8,0.4 0.8,0.8 v 0 c 0,0.5 -0.4,0.8 -0.8,0.8 z"
   id="path40" />
		<path
   class="st0"
   d="m 163.2,310.1 h -10.8 c -0.4,0 -0.8,-0.4 -0.8,-0.8 v 0 c 0,-0.4 0.4,-0.8 0.8,-0.8 h 10.9 c 0.4,0 0.8,0.4 0.8,0.8 v 0 c -0.1,0.4 -0.4,0.8 -0.9,0.8 z"
   id="path41" />
		<path
   class="st0"
   d="m 160.4,312.9 h -5.2 c -0.4,0 -0.8,-0.4 -0.8,-0.8 v 0 c 0,-0.4 0.4,-0.8 0.8,-0.8 h 5.2 c 0.4,0 0.8,0.4 0.8,0.8 v 0 c 0,0.4 -0.4,0.8 -0.8,0.8 z"
   id="path42" />
	</g>
	<rect
   x="156.89999"
   y="293.20001"
   class="st0"
   width="2"
   height="12.6"
   id="rect42" />
</g>
<g
   id="g45"
   transform="scale(0.45215508,0.39346754)">
	<path
   class="st0"
   d="M 23.8,318.5 H 7 c -0.4,0 -0.8,-0.4 -0.8,-0.8 v 0 c 0,-0.4 0.4,-0.8 0.8,-0.8 h 16.8 c 0.4,0 0.8,0.4 0.8,0.8 v 0 c 0,0.5 -0.4,0.8 -0.8,0.8 z"
   id="path43" />
	<path
   class="st0"
   d="M 20.8,321.3 H 10 c -0.4,0 -0.8,-0.4 -0.8,-0.8 v 0 c 0,-0.4 0.4,-0.8 0.8,-0.8 h 10.9 c 0.4,0 0.8,0.4 0.8,0.8 v 0 c -0.1,0.4 -0.4,0.8 -0.9,0.8 z"
   id="path44" />
	<path
   class="st0"
   d="m 18,324.1 h -5.2 c -0.4,0 -0.8,-0.4 -0.8,-0.8 v 0 c 0,-0.4 0.4,-0.8 0.8,-0.8 H 18 c 0.4,0 0.8,0.4 0.8,0.8 v 0 c 0,0.4 -0.4,0.8 -0.8,0.8 z"
   id="path45" />
</g>
</svg>
