<?xml version="1.0" encoding="UTF-8" standalone="no"?>
<!-- Generator: Adobe Illustrator 25.4.1, SVG Export Plug-In . SVG Version: 6.00 Build 0)  -->

<svg
   version="1.1"
   id="图层_1"
   x="0px"
   y="0px"
   viewBox="0 0 132.88477 211.70703"
   xml:space="preserve"
   sodipodi:docname="gyjlg.svg"
   inkscape:version="1.4.2 (f4327f4, 2025-05-13)"
   width="132.88477"
   height="211.70703"
   xmlns:inkscape="http://www.inkscape.org/namespaces/inkscape"
   xmlns:sodipodi="http://sodipodi.sourceforge.net/DTD/sodipodi-0.dtd"
   xmlns="http://www.w3.org/2000/svg"
   xmlns:svg="http://www.w3.org/2000/svg"><defs
   id="defs23" /><sodipodi:namedview
   id="namedview23"
   pagecolor="#ffffff"
   bordercolor="#000000"
   borderopacity="0.25"
   inkscape:showpageshadow="2"
   inkscape:pageopacity="0.0"
   inkscape:pagecheckerboard="0"
   inkscape:deskcolor="#d1d1d1"
   inkscape:zoom="3.2715054"
   inkscape:cx="110.19392"
   inkscape:cy="138.6212"
   inkscape:window-width="2560"
   inkscape:window-height="1494"
   inkscape:window-x="3829"
   inkscape:window-y="-11"
   inkscape:window-maximized="1"
   inkscape:current-layer="页面-2" />
<style
   type="text/css"
   id="style1">
	.st0{opacity:0.6477;fill-rule:evenodd;clip-rule:evenodd;fill:#D8D8D8;fill-opacity:0;enable-background:new    ;}
	.st1{fill-rule:evenodd;clip-rule:evenodd;fill:#FFC74D;}
	.st2{fill:#FFC74D;}
	.st3{font-family:'STHeitiSC-Medium';}
	.st4{font-size:12px;}
</style>
<g
   id="页面-2"
   transform="matrix(0.60401882,0,0,0.52926869,-5.3617494,0.79390304)">
	<g
   id="计量柜右"
   transform="translate(23.178085)">
		<path
   id="矩形备份-78"
   class="st0"
   d="M -14.301293,-1.5 V 398.49916 H 205.69974 V -1.5 Z M 103.24795,364.03607 c 0.40143,-0.0336 0.85939,-9.6e-4 1.39366,0.0996 1.08938,0.20556 1.80692,1.81653 2.25378,2.77874 0.38815,1.16638 0.21693,0.58661 0.5109,1.7381 0.0249,0.0976 0.0469,0.19268 0.0679,0.28784 0.35261,-0.0739 0.70691,-0.1416 1.0606,-0.21034 0.30866,-0.06 0.60324,-0.0925 0.87953,-0.10333 4.14436,-0.16164 4.59843,4.90288 -0.0323,5.79736 -0.42554,0.0822 -0.8502,0.16485 -1.27402,0.25831 -0.58683,0.76193 -1.64926,1.31915 -3.18828,1.33587 -0.73205,0.008 -1.46356,0.0114 -2.19558,0.007 -1.67745,2.38738 -3.457969,1.94771 -3.974031,-0.0627 -2.107923,-0.0486 -4.214041,-0.11536 -6.321591,-0.16606 -6.012701,-0.20694 -12.014103,-0.55952 -18.001172,-1.25099 -3.363613,-0.32073 -6.73442,-0.7023 -10.108077,-0.97791 -0.624233,0.50085 -1.526983,0.83554 -2.709715,0.85245 -6.189024,0.0885 -12.372234,-0.30359 -18.554109,-0.59044 -7.402735,-0.34835 -14.804352,-0.66866 -22.211254,-0.87459 -4.434898,-0.11432 -8.870271,-0.17531 -13.3060583,-0.22141 -2.3019819,-0.0771 -4.601164,-0.28362 -6.9003955,-0.42438 -1.8070305,-0.10637 -3.6137235,-0.12531 -5.4226632,-0.14761 -5.0094442,-0.0618 -4.9577045,-5.83737 0.051737,-5.77521 1.8812202,0.0234 3.76334719,0.0435 5.64254459,0.15499 2.22415951,0.13658 4.44754971,0.33386 6.67404701,0.41699 4.4615174,0.0465 8.9230424,0.11004 13.3836624,0.22511 7.434335,0.20689 14.865176,0.52476 22.295327,0.87458 2.822652,0.13098 5.645354,0.28314 8.468667,0.40224 0.597846,-0.5818 1.536667,-0.98528 2.826123,-1.0185 6.774983,-0.17455 13.545055,0.70372 20.290526,1.34693 5.89763,0.68302 11.809801,1.03285 17.732787,1.23623 2.340308,0.0537 4.679547,0.13178 7.020037,0.18082 0.336876,-1.32172 0.600628,-2.66279 1.063838,-3.94855 0.68868,-1.40411 1.37931,-2.12063 2.58361,-2.22152 z m 2.11797,4.49839 v 0.004 h 0.003 v -0.004 z m 0,0.004 c -0.0141,0.006 -0.0527,0.0291 -0.0679,0.0369 -0.0272,0.06 -0.053,0.11975 -0.0776,0.18082 0.0451,-0.0654 0.0943,-0.13649 0.14551,-0.21404 z" />
		
	</g>
<path
   id="形状结合"
   class="st1"
   d="M 132.17855,-0.00176525 V 65.001696 h 0.10024 l -9.0022,8.996789 0.70168,0.701145 9.19945,-9.199752 9.19945,9.199752 0.70168,-0.701145 -9.0022,-8.996789 h 0.10024 V -0.00176525 Z m 0.99917,70.10336425 -0.69845,0.697454 -0.30072,0.302599 -8.90196,8.897153 0.70168,0.701144 8.20028,-8.199699 v 75.80108 l -8.20028,-8.19969 -0.70168,0.69745 9.20268,9.19975 0.69845,0.70115 9.90113,-9.9009 -0.70168,-0.69745 -8.20028,8.19969 v -9.30307 h 56.00185 v 22.00117 h -7.00064 v 33.00176 h 7.00064 v 13.99705 h 1.99833 v -13.99705 h 7.00064 v -33.00176 h -7.00064 V 137.00184 H 134.17689 V 72.50025 l 8.20028,8.199699 0.70168,-0.701144 z m -9.19945,75.996671 -0.70168,0.70114 9.20268,9.19975 h -0.30072 v 79.00052 H 85.178869 v 15.0008 H 79.1774 v 2.0001 h 14.001271 v -2.0001 h -6.001468 v -13.0007 h 45.001347 v 131.66015 c 0.14194,-0.0161 0.28006,-0.028 0.4139,-0.0332 0.60928,-0.0238 1.1391,0.0639 1.58444,0.23618 V 155.99916 h -0.29749 l 9.19945,-9.19975 -0.70168,-0.70114 -9.19945,9.20344 z m 61.2014,16.90126 h 4.99907 v 29.00155 h -4.99907 z m 6.9974,0 h 5.0023 v 29.00155 h -5.0023 z m -77.13635,206.99996 c 0.23873,0.009 0.47909,0.0176 0.71785,0.0258 2.34032,0.0537 4.67955,0.13178 7.02005,0.18082 0.0176,-0.0692 0.0377,-0.13734 0.055,-0.20665 z" /></g>
<g
   id="g3"
   transform="matrix(0.60401882,0,0,0.52926869,8.6382505,0.79390304)">
	<g
   id="g1">
		<path
   class="st2"
   d="m 167.8,229 c -6,0 -10.9,-4.9 -10.9,-10.9 0,-6 4.9,-10.9 10.9,-10.9 6,0 10.9,4.9 10.9,10.9 0,6 -4.9,10.9 -10.9,10.9 z m 0,-20.7 c -5.4,0 -9.9,4.4 -9.9,9.9 0,5.5 4.4,9.9 9.9,9.9 5.5,0 9.9,-4.4 9.9,-9.9 0,-5.5 -4.4,-9.9 -9.9,-9.9 z"
   id="path1" />
		<text
   transform="matrix(1.0831,0,0,1,164.1094,222.3527)"
   class="st2 st3 st4"
   id="text1">v</text>
	</g>
	<g
   id="g2">
		<path
   class="st2"
   d="m 167.8,247.8 c -6,0 -10.9,-4.9 -10.9,-10.9 0,-6 4.9,-10.9 10.9,-10.9 6,0 10.9,4.9 10.9,10.9 0,6 -4.9,10.9 -10.9,10.9 z m 0,-20.7 c -5.4,0 -9.9,4.4 -9.9,9.9 0,5.5 4.4,9.9 9.9,9.9 5.5,0 9.9,-4.4 9.9,-9.9 0,-5.5 -4.4,-9.9 -9.9,-9.9 z"
   id="path2" />
		<text
   transform="matrix(1.0831,0,0,1,164.1094,241.1564)"
   class="st2 st3 st4"
   id="text2">v</text>
	</g>
</g>
<g
   id="g11"
   transform="matrix(0.60401882,0,0,0.52926869,8.6382505,0.79390304)">
	<path
   class="st2"
   d="m 79,107.6 c -5.5,0 -10,-4.5 -10,-10 0,-5.5 4.5,-10 10,-10 5.5,0 10,4.5 10,10 0,5.5 -4.5,10 -10,10 z m 0,-18.9 c -4.9,0 -9,4 -9,9 0,5 4,9 9,9 5,0 9,-4 9,-9 0,-5 -4.1,-9 -9,-9 z"
   id="path3" />
	<path
   class="st2"
   d="m 79,131.6 c -5.5,0 -10,-4.5 -10,-10 0,-5.5 4.5,-10 10,-10 5.5,0 10,4.5 10,10 0,5.5 -4.5,10 -10,10 z m 0,-18.9 c -4.9,0 -9,4 -9,9 0,5 4,9 9,9 5,0 9,-4 9,-9 0,-5 -4.1,-9 -9,-9 z"
   id="path4" />
	<rect
   x="78.5"
   y="82.900002"
   class="st2"
   width="1"
   height="53"
   id="rect4" />
	<rect
   x="88.400002"
   y="97.099998"
   class="st2"
   width="7.3000002"
   height="1"
   id="rect5" />
	<g
   id="g7">
		
			<rect
   x="83.699997"
   y="96.800003"
   transform="matrix(0.2588,-0.9659,0.9659,0.2588,-26.7102,159.8683)"
   class="st2"
   width="14.3"
   height="1"
   id="rect6" />
		<rect
   x="86"
   y="97.5"
   transform="matrix(0.2588,-0.9659,0.9659,0.2588,-25.6362,162.5514)"
   class="st2"
   width="14.3"
   height="1"
   id="rect7" />
	</g>
	<rect
   x="88.400002"
   y="121.1"
   class="st2"
   width="7.3000002"
   height="1"
   id="rect8" />
	<g
   id="g10">
		
			<rect
   x="83.699997"
   y="120.8"
   transform="matrix(0.2588,-0.9659,0.9659,0.2588,-49.8917,177.6502)"
   class="st2"
   width="14.3"
   height="1"
   id="rect9" />
		
			<rect
   x="85.900002"
   y="121.5"
   transform="matrix(0.2588,-0.9659,0.9659,0.2588,-48.8177,180.3333)"
   class="st2"
   width="14.3"
   height="1"
   id="rect10" />
	</g>
</g>
<g
   id="g19"
   transform="matrix(0.60401882,0,0,0.52926869,8.6382505,0.79390304)">
	<path
   class="st2"
   d="m 140.6,107.6 c -5.5,0 -10,-4.5 -10,-10 0,-5.5 4.5,-10 10,-10 5.5,0 10,4.5 10,10 0,5.5 -4.5,10 -10,10 z m 0,-18.9 c -4.9,0 -9,4 -9,9 0,5 4,9 9,9 5,0 9,-4 9,-9 0,-5 -4.1,-9 -9,-9 z"
   id="path11" />
	<path
   class="st2"
   d="m 140.6,131.6 c -5.5,0 -10,-4.5 -10,-10 0,-5.5 4.5,-10 10,-10 5.5,0 10,4.5 10,10 0,5.5 -4.5,10 -10,10 z m 0,-18.9 c -4.9,0 -9,4 -9,9 0,5 4,9 9,9 5,0 9,-4 9,-9 0,-5 -4.1,-9 -9,-9 z"
   id="path12" />
	<rect
   x="140.10001"
   y="82.900002"
   class="st2"
   width="1"
   height="53"
   id="rect12" />
	<rect
   x="150"
   y="97.099998"
   class="st2"
   width="7.3000002"
   height="1"
   id="rect13" />
	<g
   id="g15">
		
			<rect
   x="145.3"
   y="96.800003"
   transform="matrix(0.2588,-0.9659,0.9659,0.2588,19.0075,219.4034)"
   class="st2"
   width="14.3"
   height="1"
   id="rect14" />
		
			<rect
   x="147.5"
   y="97.400002"
   transform="matrix(0.2588,-0.9659,0.9659,0.2588,20.035,221.9742)"
   class="st2"
   width="14.3"
   height="1"
   id="rect15" />
	</g>
	<rect
   x="150"
   y="121.1"
   class="st2"
   width="7.3000002"
   height="1"
   id="rect16" />
	<g
   id="g18">
		
			<rect
   x="145.3"
   y="120.8"
   transform="matrix(0.2588,-0.9659,0.9659,0.2588,-4.1737,237.1852)"
   class="st2"
   width="14.3"
   height="1"
   id="rect17" />
		
			<rect
   x="147.60001"
   y="121.4"
   transform="matrix(0.2588,-0.9659,0.9659,0.2588,-3.108,239.8376)"
   class="st2"
   width="14.3"
   height="1"
   id="rect18" />
	</g>
</g>
<g
   id="g23"
   transform="matrix(0.60401882,0,0,0.52926869,8.6382505,0.79390304)">
	<path
   class="st2"
   d="m 63,270.4 c -4.1,0 -7.5,3.4 -7.5,7.5 0,4.1 3.4,7.5 7.5,7.5 4.1,0 7.5,-3.4 7.5,-7.5 0,-4.1 -3.3,-7.5 -7.5,-7.5 z m 0,1 c 1.5,0 2.9,0.5 4,1.4 l -4.2,4.2 -4,-4 c 1.1,-1 2.6,-1.6 4.2,-1.6 z m -6.5,6.5 c 0,-1.6 0.6,-3.1 1.6,-4.2 l 4,4 -4.2,4.2 c -0.9,-1.1 -1.4,-2.4 -1.4,-4 z m 6.5,6.5 c -1.7,0 -3.3,-0.7 -4.4,-1.7 l 4.2,-4.2 4.4,4.4 c -1.1,0.9 -2.6,1.5 -4.2,1.5 z m 4.9,-2.2 -4.4,-4.4 4.2,-4.2 c 1.1,1.2 1.7,2.7 1.7,4.4 0.1,1.5 -0.5,3 -1.5,4.2 z"
   id="path19" />
	<polygon
   class="st2"
   points="62,258 56,258 56,256 70,256 70,258 64,258 64,270.4 62,270.4 "
   id="polygon19" />
	<g
   id="g22">
		<path
   class="st2"
   d="M 71.3,299.3 H 54.5 c -0.4,0 -0.8,-0.4 -0.8,-0.8 v 0 c 0,-0.4 0.4,-0.8 0.8,-0.8 h 16.8 c 0.4,0 0.8,0.4 0.8,0.8 v 0 c 0,0.5 -0.4,0.8 -0.8,0.8 z"
   id="path20" />
		<path
   class="st2"
   d="M 68.3,302.1 H 57.5 c -0.4,0 -0.8,-0.4 -0.8,-0.8 v 0 c 0,-0.4 0.4,-0.8 0.8,-0.8 h 10.9 c 0.4,0 0.8,0.4 0.8,0.8 v 0 c -0.1,0.4 -0.4,0.8 -0.9,0.8 z"
   id="path21" />
		<path
   class="st2"
   d="m 65.5,304.9 h -5.2 c -0.4,0 -0.8,-0.4 -0.8,-0.8 v 0 c 0,-0.4 0.4,-0.8 0.8,-0.8 h 5.2 c 0.4,0 0.8,0.4 0.8,0.8 v 0 c 0,0.4 -0.4,0.8 -0.8,0.8 z"
   id="path22" />
	</g>
	<rect
   x="62"
   y="285.29999"
   class="st2"
   width="2"
   height="12.6"
   id="rect22" />
</g>
</svg>
