<?xml version="1.0" encoding="UTF-8" standalone="no"?>
<!-- Generator: Adobe Illustrator 25.4.1, SVG Export Plug-In . SVG Version: 6.00 Build 0)  -->

<svg
   version="1.1"
   id="图层_1"
   x="0px"
   y="0px"
   viewBox="0 0 50.088345 189.82088"
   xml:space="preserve"
   sodipodi:docname="gyllgl.svg"
   inkscape:version="1.4.2 (f4327f4, 2025-05-13)"
   width="50.088345"
   height="189.82088"
   xmlns:inkscape="http://www.inkscape.org/namespaces/inkscape"
   xmlns:sodipodi="http://sodipodi.sourceforge.net/DTD/sodipodi-0.dtd"
   xmlns="http://www.w3.org/2000/svg"
   xmlns:svg="http://www.w3.org/2000/svg"><defs
   id="defs40" /><sodipodi:namedview
   id="namedview40"
   pagecolor="#ffffff"
   bordercolor="#000000"
   borderopacity="0.25"
   inkscape:showpageshadow="2"
   inkscape:pageopacity="0.0"
   inkscape:pagecheckerboard="0"
   inkscape:deskcolor="#d1d1d1"
   inkscape:zoom="3.2715054"
   inkscape:cx="102.55218"
   inkscape:cy="165.21446"
   inkscape:window-width="2560"
   inkscape:window-height="1494"
   inkscape:window-x="3829"
   inkscape:window-y="-11"
   inkscape:window-maximized="1"
   inkscape:current-layer="图层_1" />
<style
   type="text/css"
   id="style1">
	.st0{fill:#FFC74D;}
	.st1{fill-rule:evenodd;clip-rule:evenodd;fill:#FFFFFF;stroke:#FFC74D;stroke-width:2;}
</style>
<rect
   x="20.425373"
   y="36.025143"
   class="st0"
   width="1.0264004"
   height="39.750122"
   id="rect1"
   style="stroke-width:0.511734" />
<rect
   x="20.37405"
   y="78.785866"
   class="st0"
   width="1.0264004"
   height="78.93895"
   id="rect2"
   style="stroke-width:0.511734" />
<rect
   x="20.37405"
   y="157.72482"
   class="st0"
   width="1.0264004"
   height="32.096058"
   id="rect3"
   style="stroke-width:0.511734" />
<rect
   x="44.905018"
   y="120.11784"
   class="st0"
   width="1.0264004"
   height="7.1948237"
   id="rect4"
   style="stroke-width:0.511734" />
<rect
   x="20.37405"
   y="120.11784"
   class="st0"
   width="25.146812"
   height="1.0205424"
   id="rect5"
   style="stroke-width:0.511734" />

<rect
   x="20.37405"
   y="0"
   class="st0"
   width="1.0264004"
   height="33.014545"
   id="rect7"
   style="stroke-width:0.511734" />
<rect
   id="矩形备份-12"
   x="17.03825"
   y="47.404194"
   class="st1"
   width="7.6980038"
   height="15.920462" />
<polygon
   class="st0"
   points="156.8,248.8 158.8,248.8 164.8,248.8 164.8,250.8 150.8,250.8 150.8,248.8 "
   id="polygon7"
   transform="matrix(0.51320024,0,0,0.51027117,-35.564777,0)" />
<g
   id="g15"
   transform="matrix(0.51320024,0,0,0.51027117,-35.564777,0)">
	<path
   class="st0"
   d="m 79.3,192.2 c -5.5,0 -10,-4.5 -10,-10 0,-5.5 4.5,-10 10,-10 5.5,0 10,4.5 10,10 0,5.5 -4.5,10 -10,10 z m 0,-18.9 c -4.9,0 -9,4 -9,9 0,5 4,9 9,9 5,0 9,-4 9,-9 0,-5 -4,-9 -9,-9 z"
   id="path7" />
	<path
   class="st0"
   d="m 79.3,216.2 c -5.5,0 -10,-4.5 -10,-10 0,-5.5 4.5,-10 10,-10 5.5,0 10,4.5 10,10 0,5.5 -4.5,10 -10,10 z m 0,-18.9 c -4.9,0 -9,4 -9,9 0,5 4,9 9,9 5,0 9,-4 9,-9 0,-5 -4,-9 -9,-9 z"
   id="path8" />
	<rect
   x="78.800003"
   y="167.5"
   class="st0"
   width="1"
   height="53"
   id="rect8" />
	<rect
   x="88.800003"
   y="181.8"
   class="st0"
   width="7.3000002"
   height="1"
   id="rect9" />
	<g
   id="g11">
		
			<rect
   x="84.300003"
   y="181.39999"
   transform="matrix(0.2588,-0.9659,0.9659,0.2588,-107.9577,223.1965)"
   class="st0"
   width="14.3"
   height="1"
   id="rect10" />
		
			<rect
   x="86.300003"
   y="182"
   transform="matrix(0.2588,-0.9659,0.9659,0.2588,-107.0467,225.5464)"
   class="st0"
   width="14.3"
   height="1"
   id="rect11" />
	</g>
	<rect
   x="88.800003"
   y="205.8"
   class="st0"
   width="7.3000002"
   height="1"
   id="rect12" />
	<g
   id="g14">
		
			<rect
   x="84.300003"
   y="205.39999"
   transform="matrix(0.2588,-0.9659,0.9659,0.2588,-131.1382,240.985)"
   class="st0"
   width="14.3"
   height="1"
   id="rect13" />
		
			<rect
   x="86.300003"
   y="206"
   transform="matrix(0.2588,-0.9659,0.9659,0.2588,-130.2267,243.3346)"
   class="st0"
   width="14.3"
   height="1"
   id="rect14" />
	</g>
</g>
<g
   id="g23"
   transform="matrix(0.51320024,0,0,0.51027117,-35.564777,0)">
	<path
   class="st0"
   d="m 109.7,192.2 c -5.5,0 -10,-4.5 -10,-10 0,-5.5 4.5,-10 10,-10 5.5,0 10,4.5 10,10 0,5.5 -4.5,10 -10,10 z m 0,-18.9 c -4.9,0 -9,4 -9,9 0,5 4,9 9,9 4.9,0 9,-4 9,-9 0,-5 -4,-9 -9,-9 z"
   id="path15" />
	<path
   class="st0"
   d="m 109.7,216.2 c -5.5,0 -10,-4.5 -10,-10 0,-5.5 4.5,-10 10,-10 5.5,0 10,4.5 10,10 0,5.5 -4.5,10 -10,10 z m 0,-18.9 c -4.9,0 -9,4 -9,9 0,5 4,9 9,9 4.9,0 9,-4 9,-9 0,-5 -4,-9 -9,-9 z"
   id="path16" />
	<rect
   x="109.2"
   y="167.5"
   class="st0"
   width="1"
   height="53"
   id="rect16" />
	<rect
   x="119.2"
   y="181.8"
   class="st0"
   width="7.3000002"
   height="1"
   id="rect17" />
	<g
   id="g19">
		
			<rect
   x="114.7"
   y="181.39999"
   transform="matrix(0.2588,-0.9659,0.9659,0.2588,-85.4261,252.5579)"
   class="st0"
   width="14.3"
   height="1"
   id="rect18" />
		
			<rect
   x="116.7"
   y="182"
   transform="matrix(0.2588,-0.9659,0.9659,0.2588,-84.5149,254.908)"
   class="st0"
   width="14.3"
   height="1"
   id="rect19" />
	</g>
	<rect
   x="119.2"
   y="205.8"
   class="st0"
   width="7.3000002"
   height="1"
   id="rect20" />
	<g
   id="g22">
		
			<rect
   x="114.7"
   y="205.39999"
   transform="matrix(0.2588,-0.9659,0.9659,0.2588,-108.6063,270.3464)"
   class="st0"
   width="14.3"
   height="1"
   id="rect21" />
		
			<rect
   x="116.7"
   y="206"
   transform="matrix(0.2588,-0.9659,0.9659,0.2588,-107.6951,272.6961)"
   class="st0"
   width="14.3"
   height="1"
   id="rect22" />
	</g>
</g>
<g
   id="g31"
   transform="matrix(0.51320024,0,0,0.51027117,-35.564777,0)">
	<path
   class="st0"
   d="m 138,192.2 c -5.5,0 -10,-4.5 -10,-10 0,-5.5 4.5,-10 10,-10 5.5,0 10,4.5 10,10 0,5.5 -4.5,10 -10,10 z m 0,-18.9 c -4.9,0 -9,4 -9,9 0,5 4,9 9,9 5,0 9,-4 9,-9 0,-5 -4,-9 -9,-9 z"
   id="path23" />
	<path
   class="st0"
   d="m 138,216.2 c -5.5,0 -10,-4.5 -10,-10 0,-5.5 4.5,-10 10,-10 5.5,0 10,4.5 10,10 0,5.5 -4.5,10 -10,10 z m 0,-18.9 c -4.9,0 -9,4 -9,9 0,5 4,9 9,9 5,0 9,-4 9,-9 0,-5 -4,-9 -9,-9 z"
   id="path24" />
	<rect
   x="137.5"
   y="167.5"
   class="st0"
   width="1"
   height="53"
   id="rect24" />
	<rect
   x="147.5"
   y="181.8"
   class="st0"
   width="7.3000002"
   height="1"
   id="rect25" />
	<g
   id="g27">
		
			<rect
   x="143"
   y="181.39999"
   transform="matrix(0.2588,-0.9659,0.9659,0.2588,-64.4509,279.8914)"
   class="st0"
   width="14.3"
   height="1"
   id="rect26" />
		<rect
   x="145"
   y="182"
   transform="matrix(0.2588,-0.9659,0.9659,0.2588,-63.5394,282.2411)"
   class="st0"
   width="14.3"
   height="1"
   id="rect27" />
	</g>
	<rect
   x="147.5"
   y="205.8"
   class="st0"
   width="7.3000002"
   height="1"
   id="rect28" />
	<g
   id="g30">
		
			<rect
   x="143"
   y="205.39999"
   transform="matrix(0.2588,-0.9659,0.9659,0.2588,-87.6309,297.6796)"
   class="st0"
   width="14.3"
   height="1"
   id="rect29" />
		<rect
   x="145"
   y="206"
   transform="matrix(0.2588,-0.9659,0.9659,0.2588,-86.7197,300.0294)"
   class="st0"
   width="14.3"
   height="1"
   id="rect30" />
	</g>
</g>
<g
   id="g32"
   transform="matrix(0.51320024,0,0,0.51027117,-35.564777,0)">
	<polygon
   class="st0"
   points="100.1,73.7 110,63.7 119.9,73.6 119.2,74.3 110,65.2 100.8,74.4 "
   id="polygon31" />
	<polygon
   class="st0"
   points="100.1,79.5 110,69.6 119.9,79.5 119.2,80.2 110,71 100.8,80.3 "
   id="polygon32" />
</g>
<g
   id="g34"
   transform="matrix(0.51320024,0,0,0.51027117,-35.564777,0)">
	<polygon
   class="st0"
   points="100.2,73.7 110.1,63.7 120,73.6 119.3,74.3 110.1,65.2 100.9,74.4 "
   id="polygon33" />
	<polygon
   class="st0"
   points="100.2,79.5 110.1,69.6 120,79.5 119.3,80.2 110.1,71 100.9,80.3 "
   id="polygon34" />
</g>
<g
   id="g36"
   transform="matrix(0.51320024,0,0,0.51027117,-35.564777,0)">
	<polygon
   class="st0"
   points="110.1,155.8 100.2,145.9 100.9,145.2 110.1,154.4 119.3,145.2 120,146 "
   id="polygon35" />
	<polygon
   class="st0"
   points="110.1,150 100.2,140 100.9,139.3 110.1,148.5 119.3,139.3 120,140.1 "
   id="polygon36" />
</g>
<g
   id="g40"
   transform="matrix(0.51320024,0,0,0.51027117,-35.564777,0)">
	<path
   class="st0"
   d="m 157.8,269.4 c -4.1,0 -7.5,3.4 -7.5,7.5 0,4.1 3.4,7.5 7.5,7.5 4.1,0 7.5,-3.4 7.5,-7.5 0,-4.1 -3.3,-7.5 -7.5,-7.5 z m 0,1 c 1.5,0 2.9,0.5 4,1.4 l -4.2,4.2 -4,-4 c 1.1,-1 2.6,-1.6 4.2,-1.6 z m -6.5,6.5 c 0,-1.6 0.6,-3.1 1.6,-4.2 l 4,4 -4.2,4.2 c -0.9,-1.1 -1.4,-2.4 -1.4,-4 z m 6.5,6.5 c -1.7,0 -3.3,-0.7 -4.4,-1.7 l 4.2,-4.2 4.4,4.4 c -1.1,0.9 -2.6,1.5 -4.2,1.5 z m 4.9,-2.2 -4.4,-4.4 4.2,-4.2 c 1.1,1.2 1.7,2.7 1.7,4.4 0.1,1.5 -0.5,3 -1.5,4.2 z"
   id="path36" />
	<polygon
   class="st0"
   points="158.8,269.4 156.8,269.4 156.8,257 150.8,257 150.8,255 164.8,255 164.8,257 158.8,257 "
   id="polygon37" />
	<g
   id="g39">
		<path
   class="st0"
   d="m 166.1,298.3 h -16.8 c -0.4,0 -0.8,-0.4 -0.8,-0.8 v 0 c 0,-0.4 0.4,-0.8 0.8,-0.8 h 16.8 c 0.4,0 0.8,0.4 0.8,0.8 v 0 c 0,0.5 -0.4,0.8 -0.8,0.8 z"
   id="path37" />
		<path
   class="st0"
   d="m 163.1,301.1 h -10.8 c -0.4,0 -0.8,-0.4 -0.8,-0.8 v 0 c 0,-0.4 0.4,-0.8 0.8,-0.8 h 10.9 c 0.4,0 0.8,0.4 0.8,0.8 v 0 c -0.1,0.4 -0.4,0.8 -0.9,0.8 z"
   id="path38" />
		<path
   class="st0"
   d="m 160.3,303.9 h -5.2 c -0.4,0 -0.8,-0.4 -0.8,-0.8 v 0 c 0,-0.4 0.4,-0.8 0.8,-0.8 h 5.2 c 0.4,0 0.8,0.4 0.8,0.8 v 0 c 0,0.4 -0.4,0.8 -0.8,0.8 z"
   id="path39" />
	</g>
	<rect
   x="156.8"
   y="284.29999"
   class="st0"
   width="2"
   height="12.6"
   id="rect39" />
</g>
</svg>
