<?xml version="1.0" encoding="UTF-8" standalone="no"?>
<!-- Generator: Adobe Illustrator 25.4.1, SVG Export Plug-In . SVG Version: 6.00 Build 0)  -->

<svg
   version="1.1"
   id="图层_1"
   x="0px"
   y="0px"
   viewBox="0 0 66.988007 201.66187"
   xml:space="preserve"
   sodipodi:docname="jxgl.svg"
   inkscape:version="1.4.2 (f4327f4, 2025-05-13)"
   width="66.988007"
   height="201.66187"
   xmlns:inkscape="http://www.inkscape.org/namespaces/inkscape"
   xmlns:sodipodi="http://sodipodi.sourceforge.net/DTD/sodipodi-0.dtd"
   xmlns="http://www.w3.org/2000/svg"
   xmlns:svg="http://www.w3.org/2000/svg"><defs
   id="defs18" /><sodipodi:namedview
   id="namedview18"
   pagecolor="#ffffff"
   bordercolor="#000000"
   borderopacity="0.25"
   inkscape:showpageshadow="2"
   inkscape:pageopacity="0.0"
   inkscape:pagecheckerboard="0"
   inkscape:deskcolor="#d1d1d1"
   inkscape:zoom="3.1984231"
   inkscape:cx="104.58279"
   inkscape:cy="215.26233"
   inkscape:window-width="2560"
   inkscape:window-height="1494"
   inkscape:window-x="3829"
   inkscape:window-y="-11"
   inkscape:window-maximized="1"
   inkscape:current-layer="图层_1" />
<style
   type="text/css"
   id="style1">
	.st0{display:none;}
	.st1{display:inline;}
	.st2{opacity:0.5181;fill-rule:evenodd;clip-rule:evenodd;fill:#D8D8D8;fill-opacity:0;enable-background:new    ;}
	.st3{fill:#FFC74D;}
	.st4{fill-rule:evenodd;clip-rule:evenodd;fill:#FFC74D;}
	.st5{fill-rule:evenodd;clip-rule:evenodd;fill:#FF3334;}
	.st6{fill:none;stroke:#FFC74D;stroke-width:2;}
	.st7{font-family:'STHeitiSC-Medium';}
	.st8{font-size:12px;}
</style>
<g
   id="页面-2"
   class="st0"
   transform="translate(-5.2000002)">
	<g
   id="进线隔离左低右高"
   class="st1">
		<rect
   id="矩形备份-4"
   y="0"
   class="st2"
   width="220"
   height="400"
   x="0" />
		<g
   id="编组-6"
   transform="translate(56)">
			<path
   id="形状结合"
   class="st3"
   d="m 44.8,146.1 9.2,9.2 9.2,-9.2 0.7,0.7 -8.9,8.9 V 206 h 51 v 14.1 l 8.9,8.9 -0.7,0.7 -9.2,-9.2 -9.2,9.2 -0.7,-0.7 8.9,-8.9 V 208 H 55 v 88 h 8 l -8,14.2 V 345 c 5.1,0.5 9,4.8 9,10 h 1.4 l 3,-8.6 0.9,0.3 -2.9,8.2 h 1.9 l 3,-8.6 0.9,0.3 -2.9,8.2 H 70 v 1 h -0.9 l -1.6,4.7 -0.9,-0.3 1.5,-4.4 h -1.9 l -1.6,4.7 -0.9,-0.3 1.5,-4.4 h -1.1 c -0.5,4.7 -4.2,8.5 -8.9,8.9 v 15 h -2 v -15 c -5.1,-0.5 -9,-4.8 -9,-10 0,-5.2 3.9,-9.4 9,-10 V 309.9 L 45,296 h 8 V 208 H 9 v 13 h 7 v 2 H 0 v -2 h 7 v -15 h 46 v -50.3 l -8.9,-8.9 z M 45,355 c 0,4.6 3.5,8.4 8,8.9 V 346 c -4.5,0.6 -8,4.4 -8,9 z m 10,-8.9 V 364 c 4.5,-0.5 8,-4.3 8,-8.9 0,-4.6 -3.5,-8.5 -8,-9 z M 105,292 c 6.1,0 11,4.9 11,11 0,4.1 -2.2,7.6 -5.5,9.5 3.3,1.9 5.5,5.4 5.5,9.5 0,6.1 -4.9,11 -11,11 -6.1,0 -11,-4.9 -11,-11 0,-4.1 2.2,-7.6 5.5,-9.5 -3.3,-1.9 -5.5,-5.4 -5.5,-9.5 0,-6.1 4.9,-11 11,-11 z m 4.5,21.1 -0.1,0.1 c -1.3,0.6 -2.8,0.9 -4.3,0.9 -1.6,0 -3.1,-0.3 -4.5,-0.9 -3.3,1.6 -5.5,5 -5.5,8.9 0,5.5 4.5,10 10,10 5.5,0 10,-4.5 10,-10 -0.1,-4 -2.4,-7.4 -5.6,-9 z m -2.8,8.1 0.7,0.7 -2.4,2.4 v 5.7 h -1 v -5.8 l -2.3,-2.3 0.7,-0.7 2.1,2.1 z M 105,312 c -1.1,0 -2.1,0.2 -3.1,0.5 1,0.3 2,0.5 3.1,0.5 1.1,0 2.1,-0.2 3.1,-0.5 -1,-0.3 -2,-0.5 -3.1,-0.5 z m 0,-19 c -5.5,0 -10,4.5 -10,10 0,3.9 2.3,7.3 5.5,8.9 1.4,-0.6 2.9,-0.9 4.5,-0.9 1.6,0 3.1,0.3 4.5,0.9 3.3,-1.6 5.5,-5 5.5,-8.9 0,-5.5 -4.5,-10 -10,-10 z m 1.7,8.2 0.7,0.7 -2.4,2.4 v 5.7 h -1 v -5.8 l -2.3,-2.3 0.7,-0.7 2.1,2.1 z M 61.3,297 H 55 v 11.2 z m -8.3,0 h -6.3 l 6.3,11.2 z m 52,-71.9 9.9,9.9 -0.7,0.7 -8.2,-8.2 V 246 h 7 v 34 h -7 v 12 h -2 v -12 h -7 v -34 h 7 v -18.5 l -8.2,8.2 -0.7,-0.7 9.2,-9.2 v 0 z m -1,22.9 h -5 v 30 h 5 z m 7,0 h -5 v 30 h 5 z M 10,275 v 2 H 7 v -2 z M 9,262 v 9 h 5 v 1 h -2 v 2 H 4 v -2 H 2 v -1 h 5 v -9 z M 8.1,247 c 4.1,0 7.5,3.4 7.5,7.5 0,4.1 -3.4,7.5 -7.5,7.5 -4.1,0 -7.5,-3.4 -7.5,-7.5 0,-4.1 3.3,-7.5 7.5,-7.5 z m -0.2,8 -4.2,4.2 c 1.2,1.1 2.7,1.7 4.4,1.7 1.6,0 3.1,-0.6 4.2,-1.6 z m 4.9,-4.9 -4.2,4.2 4.4,4.4 c 1,-1.1 1.6,-2.6 1.6,-4.2 0,-1.7 -0.7,-3.3 -1.8,-4.4 z m -9.6,0.2 c -1,1.1 -1.6,2.6 -1.6,4.2 0,1.5 0.5,2.9 1.4,4 l 4.2,-4.2 z M 8.1,248 c -1.6,0 -3.1,0.6 -4.2,1.6 l 4,4 4.2,-4.2 C 11,248.5 9.6,248 8.1,248 Z M 15,229 v 2 H 9 v 16 H 7 V 231 H 1 v -2 z M 55,0 V 65.1 L 63.9,74 63.2,74.7 54,65.5 44.8,74.7 44.1,74 53,65.1 V 0 Z" />
			<rect
   id="矩形备份-18"
   x="46"
   y="92"
   class="st4"
   width="16"
   height="33" />
			<rect
   id="矩形备份-19"
   x="48"
   y="94"
   class="st5"
   width="12"
   height="29" />
		</g>
	</g>
</g>
<rect
   x="30.882214"
   y="0"
   class="st3"
   width="1.1480378"
   height="33.760475"
   id="rect1"
   style="stroke-width:0.551566" />
<polygon
   class="st3"
   points="109,148 109,70.7 111,70.7 111,148 110,149 "
   id="polygon1"
   transform="matrix(0.57401888,0,0,0.52999178,-31.685842,0)" />
<rect
   x="30.882214"
   y="82.413719"
   class="st3"
   width="1.1480378"
   height="119.24815"
   id="rect2"
   style="stroke-width:0.551566" />
<rect
   x="60.157177"
   y="110.13229"
   class="st3"
   width="1.1480378"
   height="45.420296"
   id="rect3"
   style="stroke-width:0.551566" />
<rect
   x="4.4773479"
   y="110.0263"
   class="st3"
   width="1.1480378"
   height="7.2608871"
   id="rect4"
   style="stroke-width:0.551566" />
<rect
   id="矩形备份-12_00000055695028360857753700000013522373367381050040_"
   x="56.655663"
   y="130.85497"
   class="st6"
   width="8.1510677"
   height="17.065737" />
<path
   class="st3"
   d="m 31.513637,193.394 c -3.157104,0 -5.740189,-2.38496 -5.740189,-5.29992 0,-2.91495 2.583085,-5.29991 5.740189,-5.29991 3.157104,0 5.740189,2.38496 5.740189,5.29991 0,2.91496 -2.583085,5.29992 -5.740189,5.29992 z m 0,-10.01684 c -2.812693,0 -5.166171,2.11996 -5.166171,4.76992 0,2.64996 2.296076,4.76993 5.166171,4.76993 2.870094,0 5.166169,-2.11997 5.166169,-4.76993 0,-2.64996 -2.296075,-4.76992 -5.166169,-4.76992 z"
   id="path4"
   style="stroke-width:0.551566" />
<rect
   x="31.226627"
   y="180.30321"
   class="st3"
   width="0.5740189"
   height="16.535744"
   id="rect5"
   style="stroke-width:0.551566" />
<rect
   x="36.966816"
   y="187.88208"
   class="st3"
   width="4.1903381"
   height="0.52999181"
   id="rect6"
   style="stroke-width:0.551566" />
<g
   id="g8"
   transform="matrix(0.57401888,0,0,0.52999178,-31.685842,0)">
	
		<rect
   x="115.1"
   y="354.20001"
   transform="matrix(0.2588,-0.9659,0.9659,0.2588,-251.982,380.9167)"
   class="st3"
   width="14.3"
   height="1"
   id="rect7" />
	
		<rect
   x="117.1"
   y="354.70001"
   transform="matrix(0.2588,-0.9659,0.9659,0.2588,-250.9958,383.3003)"
   class="st3"
   width="14.3"
   height="1"
   id="rect8" />
</g>
<polygon
   class="st6"
   points="101.9,296.1 118,296.1 110,310.6 "
   id="polygon8"
   transform="matrix(0.57401888,0,0,0.52999178,-31.685842,0)" />
<g
   id="g9"
   transform="matrix(0.57401888,0,0,0.52999178,-31.685842,0)">
	<path
   class="st3"
   d="m 161,314.2 c -6,0 -10.9,-4.9 -10.9,-10.9 0,-6 4.9,-10.9 10.9,-10.9 6,0 10.9,4.9 10.9,10.9 0,6 -4.9,10.9 -10.9,10.9 z m 0,-20.7 c -5.4,0 -9.9,4.4 -9.9,9.9 0,5.5 4.4,9.9 9.9,9.9 5.5,0 9.9,-4.4 9.9,-9.9 0,-5.5 -4.4,-9.9 -9.9,-9.9 z"
   id="path8" />
	<text
   transform="matrix(1.0831,0,0,1,157.3091,307.5461)"
   class="st3 st7 st8"
   id="text8">v</text>
</g>
<g
   id="g10"
   transform="matrix(0.57401888,0,0,0.52999178,-31.685842,0)">
	<path
   class="st3"
   d="m 161,333 c -6,0 -10.9,-4.9 -10.9,-10.9 0,-6 4.9,-10.9 10.9,-10.9 6,0 10.9,4.9 10.9,10.9 0,6 -4.9,10.9 -10.9,10.9 z m 0,-20.7 c -5.4,0 -9.9,4.4 -9.9,9.9 0,5.5 4.4,9.9 9.9,9.9 5.5,0 9.9,-4.4 9.9,-9.9 0,-5.5 -4.4,-9.9 -9.9,-9.9 z"
   id="path9" />
	<text
   transform="matrix(1.0831,0,0,1,157.3091,326.3498)"
   class="st3 st7 st8"
   id="text9">v</text>
</g>
<rect
   x="4.4773479"
   y="109.17831"
   class="st3"
   width="56.827869"
   height="1.0599836"
   id="rect10"
   style="stroke-width:0.551566" />
<polygon
   class="st3"
   points="57.5,221.1 63.5,221.1 65.4,221.1 71.5,221.1 71.5,223.1 57.5,223.1 "
   id="polygon10"
   transform="matrix(0.57401888,0,0,0.52999178,-31.685842,0)" />
<g
   id="g12"
   transform="matrix(0.57401888,0,0,0.52999178,-31.685842,0)">
	<polygon
   class="st3"
   points="100.8,80 100.1,79.3 110,69.4 119.9,79.3 119.2,80 110,70.8 "
   id="polygon11" />
	<polygon
   class="st3"
   points="100.8,73.7 100.1,73 110,63.1 119.9,73 119.2,73.7 110,64.5 "
   id="polygon12" />
</g>
<g
   id="g14"
   transform="matrix(0.57401888,0,0,0.52999178,-31.685842,0)">
	<polygon
   class="st3"
   points="119.9,139.8 110,149.7 100.1,139.8 100.8,139.1 110,148.3 119.2,139.1 "
   id="polygon13" />
	<polygon
   class="st3"
   points="119.9,146.1 110,156 100.1,146.1 100.8,145.4 110,154.6 119.2,145.4 "
   id="polygon14" />
</g>
<g
   id="g18"
   transform="matrix(0.57401888,0,0,0.52999178,-31.685842,0)">
	<path
   class="st3"
   d="m 64.5,242.9 c -4.1,0 -7.5,3.4 -7.5,7.5 0,4.1 3.4,7.5 7.5,7.5 4.1,0 7.5,-3.4 7.5,-7.5 0,-4.1 -3.3,-7.5 -7.5,-7.5 z m 0,1 c 1.5,0 2.9,0.5 4,1.4 l -4.2,4.2 -4,-4 c 1.1,-1 2.6,-1.6 4.2,-1.6 z m -6.5,6.5 c 0,-1.6 0.6,-3.1 1.6,-4.2 l 4,4 -4.2,4.2 C 58.5,253.3 58,252 58,250.4 Z m 6.5,6.5 c -1.7,0 -3.3,-0.7 -4.4,-1.7 l 4.2,-4.2 4.4,4.4 c -1.1,0.9 -2.6,1.5 -4.2,1.5 z m 4.9,-2.2 -4.4,-4.4 4.2,-4.2 c 1.1,1.2 1.7,2.7 1.7,4.4 0.1,1.5 -0.5,3 -1.5,4.2 z"
   id="path14" />
	<polygon
   class="st3"
   points="65.5,230.5 65.5,242.9 63.5,242.9 63.5,230.5 57.5,230.5 57.5,228.5 71.5,228.5 71.5,230.5 "
   id="polygon15" />
	<g
   id="g17">
		<path
   class="st3"
   d="M 72.8,271.8 H 56 c -0.4,0 -0.8,-0.4 -0.8,-0.8 v 0 c 0,-0.4 0.4,-0.8 0.8,-0.8 h 16.8 c 0.4,0 0.8,0.4 0.8,0.8 v 0 c 0,0.5 -0.4,0.8 -0.8,0.8 z"
   id="path15" />
		<path
   class="st3"
   d="M 69.8,274.6 H 59 c -0.4,0 -0.8,-0.4 -0.8,-0.8 v 0 c 0,-0.4 0.4,-0.8 0.8,-0.8 h 10.9 c 0.4,0 0.8,0.4 0.8,0.8 v 0 c -0.1,0.4 -0.4,0.8 -0.9,0.8 z"
   id="path16" />
		<path
   class="st3"
   d="m 67,277.4 h -5.2 c -0.4,0 -0.8,-0.4 -0.8,-0.8 v 0 c 0,-0.4 0.4,-0.8 0.8,-0.8 H 67 c 0.4,0 0.8,0.4 0.8,0.8 v 0 c 0,0.4 -0.4,0.8 -0.8,0.8 z"
   id="path17" />
	</g>
	<rect
   x="63.5"
   y="257.79999"
   class="st3"
   width="2"
   height="12.6"
   id="rect17" />
</g>
</svg>
