<?xml version="1.0" encoding="UTF-8" standalone="no"?>
<!-- Generator: Adobe Illustrator 25.4.1, SVG Export Plug-In . SVG Version: 6.00 Build 0)  -->

<svg
   version="1.1"
   id="图层_1"
   x="0px"
   y="0px"
   viewBox="0 0 40.169937 194.4043"
   xml:space="preserve"
   sodipodi:docname="llgl.svg"
   inkscape:version="1.4.2 (f4327f4, 2025-05-13)"
   width="40.169937"
   height="194.4043"
   xmlns:inkscape="http://www.inkscape.org/namespaces/inkscape"
   xmlns:sodipodi="http://sodipodi.sourceforge.net/DTD/sodipodi-0.dtd"
   xmlns="http://www.w3.org/2000/svg"
   xmlns:svg="http://www.w3.org/2000/svg"><defs
   id="defs1" /><sodipodi:namedview
   id="namedview1"
   pagecolor="#ffffff"
   bordercolor="#000000"
   borderopacity="0.25"
   inkscape:showpageshadow="2"
   inkscape:pageopacity="0.0"
   inkscape:pagecheckerboard="0"
   inkscape:deskcolor="#d1d1d1"
   inkscape:zoom="3.2715054"
   inkscape:cx="103.16352"
   inkscape:cy="160.01808"
   inkscape:window-width="2560"
   inkscape:window-height="1494"
   inkscape:window-x="3829"
   inkscape:window-y="-11"
   inkscape:window-maximized="1"
   inkscape:current-layer="联络隔离右" />
<style
   type="text/css"
   id="style1">
	.st0{opacity:0.5181;fill-rule:evenodd;clip-rule:evenodd;fill:#D8D8D8;fill-opacity:0;enable-background:new    ;}
	.st1{fill:#FFC74D;}
</style>
<g
   id="页面-2"
   transform="matrix(0.60679764,0,0,0.52468365,-6.598144,-1.8340181)">
	<g
   id="联络隔离右">
		<path
   id="矩形备份-152"
   class="st0"
   d="m 0,0 v 369.8769 c 0.12504159,-0.0157 0.25378787,-0.0291 0.38624903,-0.0372 0.90955537,-0.0556 1.82077347,-0.12604 2.72305567,-0.27546 1.7123667,-0.29336 3.4008943,-0.72938 5.1017059,-1.09814 2.7052744,-0.4783 5.4163654,-0.92898 8.1434174,-1.20608 4.220402,-0.46775 8.448335,-0.93494 12.694718,-0.77428 6.150017,0.0391 12.300586,0.0958 18.449828,0.21963 5.868496,0.14878 11.731874,0.4543 17.587206,0.94179 7.845046,0.59041 15.688945,1.18076 23.529004,1.85379 6.998682,0.32576 14.000856,0.47708 21.005506,0.43553 4.98673,-0.0296 4.98673,5.79577 0,5.82569 -7.07211,0.0423 -14.142193,-0.11514 -21.208287,-0.44298 -7.881913,-0.67175 -15.767895,-1.264 -23.654534,-1.85752 -5.783098,-0.48143 -11.572208,-0.78815 -17.368332,-0.93434 -6.121765,-0.12301 -12.246828,-0.17702 -18.36936,-0.2159 -4.076746,-0.16002 -8.134655,0.29909 -12.186157,0.74822 -2.633193,0.26644 -5.251343,0.70322 -7.8633863,1.16513 -1.7042202,0.38746 -3.4028431,0.80421 -5.1210184,1.10186 -1.0593156,0.17786 -2.124877,0.26478 -3.19299195,0.3313 -0.22883661,0.0143 -0.44772858,0.0143 -0.65662335,0.004 v 24.33758 H 220.00101 V 0 Z" />
		<path
   id="形状结合"
   class="st1"
   d="m 66.174924,3.495474 v 64.998243 h 0.0998 l -8.99961,9.00096 0.69847,0.699826 9.20238,-9.198251 9.19917,9.198251 0.69847,-0.699826 -8.99961,-9.00096 h 0.0998 V 3.495474 Z m 1.00102,70.101765 -0.70168,0.699827 -0.29934,0.297798 -8.89983,8.900453 0.69847,0.699826 8.20136,-8.200626 V 151.7954 l -8.20136,-8.20063 -0.69847,0.69983 9.19917,9.20197 0.70168,0.69983 9.89764,-9.9018 -0.69847,-0.69983 -8.20136,8.20063 V 75.994517 l 8.20136,8.200626 0.69847,-0.699826 z m -9.20238,75.998171 -0.69847,0.69983 9.19917,9.20197 h -0.29934 v 78.9985 H 19.17485 v 15.00159 h -5.999735 v 1.99898 h 13.998308 v -1.99898 h -5.999735 v -13.00262 h 45.001236 v 132.94841 c 0.81403,0.0461 1.48059,0.25367 1.99883,0.56954 V 159.49721 h -0.29934 l 9.19917,-9.20197 -0.69847,-0.69983 -9.19917,9.19825 z M 13.175115,259.49422 v 2.0027 H 19.17485 V 273.863 c 0.327544,-0.0449 0.662413,-0.067 1.001028,-0.067 0.339642,0 0.671209,0.0202 0.99781,0.0633 v -12.36236 h 5.999735 v -2.0027 z m 7.998573,14.36506 v 0.0372 H 19.17485 v -0.0335 c -3.638415,0.49833 -6.501859,3.67241 -6.501859,7.43379 0,4.1 3.402887,7.49708 7.502887,7.49708 4.1,0 7.499669,-3.39708 7.499669,-7.49708 0,-3.76844 -2.789716,-6.94831 -6.501859,-7.43751 z m -0.99781,14.93459 H 19.17485 v 12.40331 h -7.499669 c -0.4,0 -0.801467,0.39661 -0.801467,0.79661 0,0.4 0.401467,0.80033 0.801467,0.80033 h 16.798614 c 0.4,0 0.801467,-0.30033 0.801467,-0.80033 0,-0.4 -0.401467,-0.79661 -0.801467,-0.79661 h -7.300107 v -12.40331 z m 0,-14.00025 c 1.5,0 2.897678,0.50337 3.997678,1.40337 l -4.200458,4.19896 -3.997678,-4.00166 c 1.1,-1 2.600458,-1.60067 4.200458,-1.60067 z m 4.699364,2.20371 c 1.1,1.2 1.699495,2.69997 1.699495,4.39997 0.1,1.5 -0.499933,2.99896 -1.499933,4.19896 l -4.400021,-4.39997 z m -9.601508,0.0968 4.000897,4.00167 -4.200459,4.19896 c -0.9,-1.1 -1.400152,-2.39795 -1.400152,-3.99795 0,-1.6 0.599714,-3.10268 1.599714,-4.20268 z m 4.699364,4.802 4.40002,4.39998 c -1.1,0.9 -2.59724,1.50016 -4.19724,1.50016 -1.7,0 -3.30002,-0.70118 -4.40002,-1.70118 z m -5.29805,22.10037 c -0.4,0 -0.801466,0.40034 -0.801466,0.80034 0,0.4 0.401466,0.80033 0.801466,0.80033 h 10.79888 c 0.5,0 0.801247,-0.40033 0.901247,-0.80033 0,-0.4 -0.401466,-0.80034 -0.801466,-0.80034 z m 2.800306,2.79931 c -0.4,0 -0.801467,0.40033 -0.801467,0.80033 0,0.4 0.401467,0.80034 0.801467,0.80034 h 5.198268 c 0.4,0 0.801467,-0.40034 0.801467,-0.80034 0,-0.4 -0.401467,-0.80033 -0.801467,-0.80033 z" />
	</g>
</g>
</svg>
