<?xml version="1.0" encoding="utf-8"?>
<!-- Generator: Adobe Illustrator 25.4.1, SVG Export Plug-In . SVG Version: 6.00 Build 0)  -->
<svg version="1.1" id="图层_1" xmlns="http://www.w3.org/2000/svg" xmlns:xlink="http://www.w3.org/1999/xlink" x="0px" y="0px"
	 viewBox="0 0 220 380" style="enable-background:new 0 0 220 380;" xml:space="preserve">
<style type="text/css">
	.st0{fill:#FFC74D;}
	.st1{opacity:0.5181;fill-rule:evenodd;clip-rule:evenodd;fill:#D8D8D8;fill-opacity:0;enable-background:new    ;}
	.st2{display:none;fill:#FFC74D;}
	.st3{fill-rule:evenodd;clip-rule:evenodd;fill:#FFC74D;}
	.st4{fill-rule:evenodd;clip-rule:evenodd;fill:#55FF49;}
	.st5{fill:none;stroke:#FFC74D;stroke-width:1.8;stroke-miterlimit:10;}
	.st6{fill:none;stroke:#FFC74D;stroke-width:1.6;}
</style>
<g>
	<rect x="109" y="71.5" class="st0" width="2" height="82.5"/>
	<polygon class="st0" points="110,70.6 119.9,80.5 119.2,81.2 110,72 100.8,81.2 100.1,80.5 	"/>
	<polygon class="st0" points="100.1,145.5 100.8,144.8 110,154 119.2,144.8 119.9,145.5 110,155.4 	"/>
</g>
<g id="页面-2">
	<g id="高压出线柜" transform="translate(110.000000, 200.000000) scale(-1, 1) translate(-110.000000, -200.000000) ">
		<polygon id="矩形备份-183" class="st1" points="0,400 220,400 220,400 		"/>
		<g id="编组-18" transform="translate(54.000000, 0.000000)">
		</g>
	</g>
</g>
<g>
	<g>
		<path class="st0" d="M79.5,196.6c-5.5,0-10-4.5-10-10s4.5-10,10-10s10,4.5,10,10S85,196.6,79.5,196.6z M79.5,177.7c-4.9,0-9,4-9,9
			s4,9,9,9s9-4,9-9S84.4,177.7,79.5,177.7z"/>
		<path class="st0" d="M79.5,220.6c-5.5,0-10-4.5-10-10s4.5-10,10-10s10,4.5,10,10S85,220.6,79.5,220.6z M79.5,201.7c-4.9,0-9,4-9,9
			s4,9,9,9s9-4,9-9S84.4,201.7,79.5,201.7z"/>
		<rect x="79" y="171.9" class="st0" width="1" height="53"/>
		<rect x="88.9" y="186.1" class="st0" width="7.3" height="1"/>
		<g>
			
				<rect x="84.3" y="185.9" transform="matrix(0.2588 -0.9659 0.9659 0.2588 -112.2696 226.5338)" class="st0" width="14.3" height="1"/>
			
				<rect x="86.5" y="186.5" transform="matrix(0.2588 -0.9659 0.9659 0.2588 -111.2421 229.1046)" class="st0" width="14.3" height="1"/>
		</g>
		<rect x="88.9" y="210.1" class="st0" width="7.3" height="1"/>
		<g>
			
				<rect x="84.3" y="209.9" transform="matrix(0.2588 -0.9659 0.9659 0.2588 -135.4508 244.3158)" class="st0" width="14.3" height="1"/>
			
				<rect x="86.5" y="210.5" transform="matrix(0.2588 -0.9659 0.9659 0.2588 -134.4237 246.8864)" class="st0" width="14.3" height="1"/>
		</g>
	</g>
	<g>
		<path class="st0" d="M109.9,196.6c-5.5,0-10-4.5-10-10s4.5-10,10-10s10,4.5,10,10S115.4,196.6,109.9,196.6z M109.9,177.7
			c-4.9,0-9,4-9,9s4,9,9,9c4.9,0,9-4,9-9S114.8,177.7,109.9,177.7z"/>
		<path class="st0" d="M109.9,220.6c-5.5,0-10-4.5-10-10s4.5-10,10-10s10,4.5,10,10S115.4,220.6,109.9,220.6z M109.9,201.7
			c-4.9,0-9,4-9,9s4,9,9,9c4.9,0,9-4,9-9S114.8,201.7,109.9,201.7z"/>
		<rect x="109.4" y="171.9" class="st2" width="1" height="53"/>
		<rect x="119.3" y="186.1" class="st0" width="7.3" height="1"/>
		<g>
			
				<rect x="114.7" y="185.9" transform="matrix(0.2588 -0.9659 0.9659 0.2588 -89.7301 255.8971)" class="st0" width="14.3" height="1"/>
			
				<rect x="116.9" y="186.5" transform="matrix(0.2588 -0.9659 0.9659 0.2588 -88.7029 258.4679)" class="st0" width="14.3" height="1"/>
		</g>
		<rect x="119.3" y="210.1" class="st0" width="7.3" height="1"/>
		<g>
			
				<rect x="114.7" y="209.9" transform="matrix(0.2588 -0.9659 0.9659 0.2588 -112.9114 273.679)" class="st0" width="14.3" height="1"/>
			
				<rect x="116.9" y="210.5" transform="matrix(0.2588 -0.9659 0.9659 0.2588 -111.8844 276.2499)" class="st0" width="14.3" height="1"/>
		</g>
	</g>
	<g>
		<path class="st0" d="M138.2,196.6c-5.5,0-10-4.5-10-10s4.5-10,10-10s10,4.5,10,10S143.7,196.6,138.2,196.6z M138.2,177.7
			c-4.9,0-9,4-9,9s4,9,9,9s9-4,9-9S143.1,177.7,138.2,177.7z"/>
		<path class="st0" d="M138.2,220.6c-5.5,0-10-4.5-10-10s4.5-10,10-10s10,4.5,10,10S143.7,220.6,138.2,220.6z M138.2,201.7
			c-4.9,0-9,4-9,9s4,9,9,9s9-4,9-9S143.1,201.7,138.2,201.7z"/>
		<rect x="137.7" y="171.9" class="st0" width="1" height="53"/>
		<rect x="147.6" y="186.1" class="st0" width="7.3" height="1"/>
		<g>
			
				<rect x="143" y="185.9" transform="matrix(0.2588 -0.9659 0.9659 0.2588 -68.7567 283.2318)" class="st0" width="14.3" height="1"/>
			
				<rect x="145.2" y="186.5" transform="matrix(0.2588 -0.9659 0.9659 0.2588 -67.7293 285.8024)" class="st0" width="14.3" height="1"/>
		</g>
		<rect x="147.6" y="210.1" class="st0" width="7.3" height="1"/>
		<g>
			
				<rect x="143" y="209.9" transform="matrix(0.2588 -0.9659 0.9659 0.2588 -91.9384 301.0137)" class="st0" width="14.3" height="1"/>
			
				<rect x="145.2" y="210.5" transform="matrix(0.2588 -0.9659 0.9659 0.2588 -90.9108 303.5846)" class="st0" width="14.3" height="1"/>
		</g>
	</g>
</g>
<g>
	<path class="st0" d="M109.6,363.2c-5.5,0-10-4.5-10-10s4.5-10,10-10s10,4.5,10,10S115.1,363.2,109.6,363.2z M109.6,344.3
		c-4.9,0-9,4-9,9s4,9,9,9s9-4,9-9S114.6,344.3,109.6,344.3z"/>
	<g>
		<rect x="119.1" y="352.8" class="st0" width="7.3" height="1"/>
		<g>
			
				<rect x="114.5" y="352.6" transform="matrix(0.2588 -0.9659 0.9659 0.2588 -250.8621 379.2604)" class="st0" width="14.3" height="1"/>
			
				<rect x="116.7" y="353" transform="matrix(0.2588 -0.9659 0.9659 0.2588 -249.6078 381.6497)" class="st0" width="14.3" height="1"/>
		</g>
	</g>
</g>
<g>
	<rect id="矩形" x="102" y="95" class="st3" width="16" height="33"/>
	<rect id="矩形_00000026861099542554342950000008796049366496181903_" x="104" y="97" class="st4" width="12" height="29"/>
</g>
<g>
	<polygon class="st0" points="109.9,65.5 119.1,74.7 119.8,74 110.9,65.1 110.9,0 108.9,0 108.9,65.1 100,74 100.7,74.7 	"/>
	<polygon class="st0" points="108.9,226.1 110.9,226.1 110.9,160.7 119.8,151.8 119.1,151.1 109.9,160.3 100.7,151.1 100,151.8 
		108.9,160.7 	"/>
	<polyline class="st2" points="15.9,317 15.9,275.9 22.9,262.7 21.9,262.1 14.9,275.5 14.9,275.5 14.9,317 	"/>
	<path class="st0" d="M110.9,367.1v-49.8l8-14.2h-8v-61h46v14h-6v2h14v-2h-6v-16h-48v-20h-2v20h-95v20h2v-18h55h1h37v61h-8l8,14.2
		v49.8 M108.9,363v17h2v-17 M108.9,315.2l-6.3-11.2h6.3V315.2z M117.2,304l-6.3,11.2V304H117.2z"/>
	<rect x="63.8" y="263.2" class="st5" width="15" height="28"/>
	<path class="st0" d="M110.9,218.9"/>
	<g>
		<path class="st0" d="M79.7,315.7H62.9c-0.4,0-0.8-0.4-0.8-0.8l0,0c0-0.4,0.4-0.8,0.8-0.8h16.8c0.4,0,0.8,0.4,0.8,0.8l0,0
			C80.5,315.4,80.1,315.7,79.7,315.7z"/>
		<path class="st0" d="M76.7,318.5H65.9c-0.4,0-0.8-0.4-0.8-0.8l0,0c0-0.4,0.4-0.8,0.8-0.8h10.9c0.4,0,0.8,0.4,0.8,0.8l0,0
			C77.5,318.1,77.2,318.5,76.7,318.5z"/>
		<path class="st0" d="M73.9,321.3h-5.2c-0.4,0-0.8-0.4-0.8-0.8l0,0c0-0.4,0.4-0.8,0.8-0.8h5.2c0.4,0,0.8,0.4,0.8,0.8l0,0
			C74.7,320.9,74.3,321.3,73.9,321.3z"/>
	</g>
	<rect x="70.2" y="242.1" class="st0" width="2" height="31.8"/>
	<rect x="70.2" y="291.1" class="st0" width="2" height="23.4"/>
	<polygon class="st0" points="16.4,317 14.4,317 14.4,275.5 21.9,261.8 23.4,262.9 16.4,275.5 	"/>
</g>
<polygon class="st6" points="71.2,281.3 67.8,273.5 74.6,273.5 "/>
<g>
	<path class="st0" d="M157.9,278.3c-4.1,0-7.5,3.4-7.5,7.5s3.4,7.5,7.5,7.5s7.5-3.4,7.5-7.5S162.1,278.3,157.9,278.3z M157.9,279.3
		c1.5,0,2.9,0.5,4,1.4l-4.2,4.2l-4-4C154.8,279.9,156.3,279.3,157.9,279.3z M151.4,285.8c0-1.6,0.6-3.1,1.6-4.2l4,4l-4.2,4.2
		C151.9,288.7,151.4,287.4,151.4,285.8z M157.9,292.3c-1.7,0-3.3-0.7-4.4-1.7l4.2-4.2l4.4,4.4C161,291.7,159.5,292.3,157.9,292.3z
		 M162.8,290.1l-4.4-4.4l4.2-4.2c1.1,1.2,1.7,2.7,1.7,4.4C164.4,287.4,163.8,288.9,162.8,290.1z"/>
	<polygon class="st0" points="164.9,264 164.9,266 158.9,266 158.9,278.4 156.9,278.4 156.9,266 150.9,266 150.9,264 	"/>
	<g>
		<path class="st0" d="M166.2,307.3h-16.8c-0.4,0-0.8-0.4-0.8-0.8l0,0c0-0.4,0.4-0.8,0.8-0.8h16.8c0.4,0,0.8,0.4,0.8,0.8l0,0
			C167,307,166.6,307.3,166.2,307.3z"/>
		<path class="st0" d="M163.2,310.1h-10.8c-0.4,0-0.8-0.4-0.8-0.8l0,0c0-0.4,0.4-0.8,0.8-0.8h10.9c0.4,0,0.8,0.4,0.8,0.8l0,0
			C164,309.7,163.7,310.1,163.2,310.1z"/>
		<path class="st0" d="M160.4,312.9h-5.2c-0.4,0-0.8-0.4-0.8-0.8l0,0c0-0.4,0.4-0.8,0.8-0.8h5.2c0.4,0,0.8,0.4,0.8,0.8l0,0
			C161.2,312.5,160.8,312.9,160.4,312.9z"/>
	</g>
	<rect x="156.9" y="293.2" class="st0" width="2" height="12.6"/>
</g>
<g>
	<path class="st0" d="M23.8,318.5H7c-0.4,0-0.8-0.4-0.8-0.8l0,0c0-0.4,0.4-0.8,0.8-0.8h16.8c0.4,0,0.8,0.4,0.8,0.8l0,0
		C24.6,318.2,24.2,318.5,23.8,318.5z"/>
	<path class="st0" d="M20.8,321.3H10c-0.4,0-0.8-0.4-0.8-0.8l0,0c0-0.4,0.4-0.8,0.8-0.8h10.9c0.4,0,0.8,0.4,0.8,0.8l0,0
		C21.6,320.9,21.3,321.3,20.8,321.3z"/>
	<path class="st0" d="M18,324.1h-5.2c-0.4,0-0.8-0.4-0.8-0.8l0,0c0-0.4,0.4-0.8,0.8-0.8H18c0.4,0,0.8,0.4,0.8,0.8l0,0
		C18.8,323.7,18.4,324.1,18,324.1z"/>
</g>
</svg>
